<svg width="14" height="14" viewBox="0 0 13 13" fill="none" xmlns="http://www.w3.org/2000/svg">
<path d="M5.28267 11.3147L1.38346 7.43629C1.36097 7.41393 1.34312 7.38734 1.33095 7.35806C1.31877 7.32878 1.3125 7.29738 1.3125 7.26566C1.3125 7.23395 1.31877 7.20255 1.33095 7.17327C1.34312 7.14399 1.36097 7.1174 1.38346 7.09504L2.36783 6.10957C2.46189 6.01551 2.61392 6.01551 2.70799 6.10957L5.27502 8.66129C5.36908 8.75535 5.52221 8.75426 5.61627 8.6602L11.2885 2.93332C11.3825 2.83816 11.5356 2.83816 11.6308 2.93223L12.6163 3.9177C12.7103 4.01176 12.7103 4.16379 12.6174 4.25785L6.43767 10.4933L6.43877 10.4944L5.62392 11.3136C5.52986 11.4077 5.37674 11.4077 5.28267 11.3147Z" fill="#009BE3"/>
</svg>
