<svg width="26" height="26" viewBox="0 0 26 26" fill="none" xmlns="http://www.w3.org/2000/svg">
<circle cx="13" cy="13" r="13" fill="#009BE3"/>
<g clip-path="url(#clip0_90_105)">
<path d="M5.61932 15.7336L9.82319 15.5337C10.0219 15.5242 10.2091 15.4379 10.3453 15.2929C10.4816 15.148 10.5562 14.9558 10.5534 14.7569L10.5165 12.1277C10.8881 11.8753 11.7109 11.4436 13.0006 11.4419C14.2925 11.4425 15.1169 11.8758 15.4847 12.1277L15.4495 14.7564C15.4465 14.9553 15.521 15.1476 15.6573 15.2926C15.7936 15.4376 15.9809 15.5238 16.1797 15.5331L20.3824 15.733C20.5816 15.7426 20.7766 15.6742 20.9261 15.5423C21.0755 15.4104 21.1677 15.2254 21.183 15.0267L21.3504 12.8432C21.3501 12.6556 21.2809 12.4746 21.1559 12.3346C21.0287 12.1911 17.9758 8.82839 13.0001 8.8273C8.66078 8.82785 5.78399 11.3872 5.0354 12.1358C4.92599 12.2452 4.86207 12.3156 4.84528 12.3346C4.72025 12.4745 4.65137 12.6556 4.6519 12.8432L4.82036 15.0267C4.83496 15.2255 4.9267 15.4107 5.07597 15.5427C5.22525 15.6748 5.42024 15.7433 5.61932 15.7336Z" fill="white"/>
</g>
<defs>
<clipPath id="clip0_90_105">
<rect width="18.3848" height="18.3848" fill="white" transform="translate(26 13.0002) rotate(135)"/>
</clipPath>
</defs>
</svg>
