<svg width="26" height="26" viewBox="0 0 26 26" fill="none" xmlns="http://www.w3.org/2000/svg">
<g clip-path="url(#clip0_90_103)">
<path d="M13 0C9.55297 0 6.24406 1.37048 3.80859 3.80758C1.37061 6.24564 0.000675329 9.55212 0 13C0 16.4464 1.37109 19.7553 3.80859 22.1924C6.24406 24.6295 9.55297 26 13 26C16.447 26 19.7559 24.6295 22.1914 22.1924C24.6289 19.7553 26 16.4464 26 13C26 9.55358 24.6289 6.24467 22.1914 3.80758C19.7559 1.37048 16.447 0 13 0Z" fill="#009BE3"/>
<path d="M5.88539 12.8633C9.6757 11.2123 12.2026 10.1237 13.466 9.59784C17.0776 8.09614 17.8271 7.83533 18.3166 7.82649C18.4243 7.82477 18.664 7.85138 18.8204 7.97782C18.9504 8.08446 18.987 8.22868 19.0052 8.32994C19.0215 8.43109 19.0438 8.66164 19.0255 8.84161C18.8305 10.8972 17.9835 15.8856 17.5529 18.188C17.3721 19.1622 17.0126 19.4888 16.6652 19.5207C15.9096 19.5902 15.3368 19.0218 14.6055 18.5427C13.462 17.7925 12.816 17.3257 11.7049 16.5939C10.4212 15.7481 11.254 15.2831 11.9852 14.5234C12.1762 14.3246 15.5034 11.299 15.5663 11.0246C15.5745 10.9903 15.5826 10.8623 15.5054 10.7949C15.4302 10.7272 15.3185 10.7504 15.2373 10.7687C15.1215 10.7947 13.2954 12.0028 9.75289 14.393C9.23492 14.7493 8.76571 14.923 8.3432 14.9138C7.88008 14.9039 6.98633 14.6514 6.32211 14.4357C5.50961 14.171 4.86164 14.031 4.91852 13.5815C4.94695 13.3475 5.26992 13.108 5.88539 12.8633Z" fill="white"/>
</g>
<defs>
<clipPath id="clip0_90_103">
<rect width="26" height="26" fill="white"/>
</clipPath>
</defs>
</svg>
