<svg width="26" height="26" viewBox="0 0 26 26" fill="none" xmlns="http://www.w3.org/2000/svg">
<g clip-path="url(#clip0_90_104)">
<path d="M0.554805 12.8442C0.554195 15.0287 1.12945 17.1618 2.22327 19.0418L0.450195 25.4654L7.07532 23.7418C8.90774 24.7316 10.9608 25.2502 13.0472 25.2504H13.0527C19.9401 25.2504 25.5467 19.6893 25.5496 12.854C25.551 9.54183 24.2522 6.42728 21.8925 4.08405C19.5332 1.74103 16.3954 0.449998 13.0522 0.448486C6.1639 0.448486 0.55775 6.00926 0.554906 12.8442" fill="#009BE3"/>
<path d="M0.108672 12.8404C0.107961 15.1035 0.703828 17.3128 1.83666 19.2602L0 25.914L6.86268 24.1286C8.75357 25.1516 10.8825 25.6909 13.0489 25.6917H13.0544C20.189 25.6917 25.997 19.9306 26 12.8507C26.0012 9.41946 24.6557 6.19294 22.2117 3.76577C19.7674 1.3389 16.5174 0.00141085 13.0544 0C5.91866 0 0.111516 5.76031 0.108672 12.8404ZM4.19565 18.9248L3.93941 18.5212C2.86223 16.8217 2.29369 14.8578 2.2945 12.8412C2.29673 6.95641 7.12339 2.16868 13.0585 2.16868C15.9327 2.16989 18.6339 3.28164 20.6655 5.29876C22.6971 7.31608 23.815 9.99771 23.8143 12.8498C23.8116 18.7346 18.9849 23.5229 13.0544 23.5229H13.0502C11.1192 23.5219 9.22533 23.0074 7.57372 22.035L7.18067 21.8037L3.10822 22.8632L4.19565 18.9248Z" fill="#009BE3"/>
<path d="M9.81898 7.47243C9.57666 6.93802 9.32163 6.92724 9.09119 6.91787C8.90248 6.90981 8.68677 6.91041 8.47125 6.91041C8.25553 6.91041 7.90504 6.99093 7.60878 7.3119C7.31222 7.63317 6.47656 8.40954 6.47656 9.98859C6.47656 11.5677 7.6357 13.0938 7.79728 13.3081C7.95907 13.5221 10.035 16.8662 13.3228 18.1527C16.0552 19.2218 16.6113 19.0092 17.2043 18.9556C17.7974 18.9022 19.1181 18.1794 19.3876 17.4299C19.6572 16.6806 19.6572 16.0382 19.5764 15.904C19.4956 15.7703 19.2798 15.6899 18.9564 15.5295C18.6328 15.369 17.0425 14.5925 16.7461 14.4854C16.4495 14.3784 16.2339 14.3249 16.0182 14.6463C15.8024 14.9672 15.183 15.6899 14.9942 15.904C14.8056 16.1185 14.6168 16.1452 14.2934 15.9847C13.9697 15.8237 12.928 15.4852 11.6921 14.3919C10.7305 13.5411 10.0813 12.4905 9.89262 12.1692C9.70391 11.8483 9.87241 11.6744 10.0346 11.5144C10.1799 11.3706 10.3582 11.1396 10.5201 10.9523C10.6814 10.7649 10.7352 10.6311 10.843 10.4171C10.951 10.2028 10.897 10.0154 10.8162 9.85486C10.7352 9.69433 10.1066 8.10702 9.81898 7.47243Z" fill="white"/>
</g>
<defs>
<clipPath id="clip0_90_104">
<rect width="26" height="26" fill="white"/>
</clipPath>
</defs>
</svg>
