<svg
        width="26"
        height="26"
        viewBox="0 0 26 26"
        fill="none"
        xmlns="http://www.w3.org/2000/svg">
    <circle cx="13" cy="13" r="13" fill="white"/>
    <path d="M12.7176 6L12.5294 6.13003L10.4588 10.5077L10.3647 10.5944L10.2706 10.6378L10.0353 10.6811L5.51765 10.9412L5.42353 10.9845L5.28235 11.0712L5.18824 11.1579L5.09412 11.2879L5.04706 11.418L5 11.5913V11.7214L5.04706 11.8514L9.18824 14.7554L8.62353 16.7492L7.82353 19.3932V19.5232L7.91765 19.6966L8.01176 19.8266L8.10588 19.9133L8.24706 20H8.76471L12.6706 17.7895L12.7647 17.7028H13L13.1882 17.7895L17.1882 19.9567L17.3765 20H17.6118L17.8 19.9133L17.8941 19.8266L17.9882 19.6966L18.0353 19.5666V19.4365L17 14.9721L17.0941 14.7988L17.1412 14.7554L20.7176 12.0248L20.8588 11.8514L20.9529 11.678L21 11.5046L20.9529 11.3313L20.8588 11.2012L20.6706 11.0712L20.4824 10.9845L15.7765 10.5077L15.5882 10.4644L15.4471 10.3344L15.3059 10.161L13.9882 7.34365L13.5176 6.34675L13.2824 6.13003L13.0471 6H12.7176Z"
          fill="#47A5EA"/>
</svg>