<svg width="59" height="59" viewBox="0 0 59 59" fill="none" xmlns="http://www.w3.org/2000/svg">
<g clip-path="url(#clip0_21_150)">
<path d="M29.5 59C45.7924 59 59 45.7924 59 29.5C59 13.2076 45.7924 0 29.5 0C13.2076 0 0 13.2076 0 29.5C0 45.7924 13.2076 59 29.5 59Z" fill="#009BE3"/>
<path d="M50.5303 28.7551H49.2627V27.4875H48.9222V29.0967H50.5303V28.7551ZM49.0939 31.2862C48.5933 31.2862 48.1039 31.1377 47.6877 30.8596C47.2714 30.5815 46.947 30.1862 46.7554 29.7237C46.5638 29.2612 46.5137 28.7523 46.6114 28.2613C46.7091 27.7703 46.9501 27.3193 47.3041 26.9653C47.6581 26.6113 48.1091 26.3702 48.6001 26.2726C49.0911 26.1749 49.6 26.225 50.0625 26.4166C50.525 26.6082 50.9203 26.9326 51.1984 27.3488C51.4766 27.7651 51.625 28.2545 51.625 28.7551C51.6214 29.4252 51.3535 30.0669 50.8796 30.5408C50.4057 31.0147 49.7641 31.2826 49.0939 31.2862ZM49.0939 26.6866C48.6848 26.6866 48.2849 26.8079 47.9447 27.0352C47.6045 27.2625 47.3394 27.5855 47.1829 27.9635C47.0263 28.3415 46.9854 28.7574 47.0652 29.1586C47.145 29.5598 47.342 29.9284 47.6313 30.2177C47.9205 30.507 48.2891 30.704 48.6903 30.7838C49.0916 30.8636 49.5075 30.8226 49.8854 30.6661C50.2634 30.5095 50.5864 30.2444 50.8137 29.9042C51.041 29.5641 51.1623 29.1642 51.1623 28.7551C51.1626 28.4834 51.1092 28.2143 51.0053 27.9632C50.9015 27.7122 50.7491 27.4841 50.557 27.2919C50.3649 27.0998 50.1368 26.9475 49.8857 26.8436C49.6347 26.7397 49.3656 26.6864 49.0939 26.6866ZM44.2264 30.1183V26.0782H43.3748L40.1379 30.2883V31.0914H43.0585V32.6978H44.2264V31.0914H45.2001V30.1177L44.2264 30.1183ZM43.0585 29.1693V30.0935H42.2795C42.0363 30.0935 41.5979 30.1177 41.4521 30.1177L43.1069 27.8787C43.1069 28.0734 43.0585 28.6577 43.0585 29.1688V29.1693ZM35.4409 32.6736H39.9927V31.6757H36.9741C37.3878 30.0209 39.9189 29.6556 39.9189 27.8061C39.9189 26.8082 39.2373 26.0776 37.8257 26.0776C37.0642 26.0837 36.3146 26.267 35.6362 26.6129L35.9531 27.5411C36.44 27.3221 36.9753 27.1032 37.6321 27.1032C38.1674 27.1032 38.6542 27.3221 38.6542 27.9306C38.6778 29.2903 35.7088 29.3877 35.4409 32.6736ZM31.0361 29.9719L29.0892 27.295H30.5008L31.7684 29.0472L33.0584 27.295H34.4701L32.4961 29.9719L34.492 32.6736H33.0803L31.7903 30.8725L30.476 32.6736H29.0644L31.0361 29.9719ZM26.777 25.6155C26.777 25.3961 26.8642 25.1856 27.0193 25.0304C27.1745 24.8753 27.385 24.7881 27.6044 24.7881C27.8238 24.7881 28.0343 24.8753 28.1894 25.0304C28.3446 25.1856 28.4318 25.3961 28.4318 25.6155C28.4318 26.0534 28.0665 26.4187 27.5802 26.4187C27.0939 26.4187 26.777 26.0782 26.777 25.6155ZM26.9228 27.2945H28.2854V32.673H26.9234L26.9228 27.2945ZM22.6879 27.2945H23.8558L24.0016 27.9029C24.4885 27.416 24.9263 27.1729 25.4864 27.1729C25.7533 27.1739 26.0146 27.2497 26.2406 27.3918L25.7549 28.5361C25.5721 28.4231 25.3614 28.3632 25.1464 28.3633C24.7812 28.3633 24.4896 28.509 24.0517 28.8985V32.6978H22.6885L22.6879 27.2945ZM15.5088 25.6155C15.5079 25.5066 15.5287 25.3986 15.5699 25.2978C15.6112 25.197 15.6721 25.1054 15.7491 25.0284C15.8261 24.9514 15.9177 24.8905 16.0185 24.8492C16.1193 24.808 16.2273 24.7872 16.3362 24.7881C16.7971 24.7881 17.1878 25.1286 17.1878 25.6155C17.1878 26.0534 16.8225 26.4187 16.3362 26.4187C15.8499 26.4187 15.5088 26.0782 15.5088 25.6155ZM15.6546 27.2945H17.0172V32.673H15.6552L15.6546 27.2945ZM18.8408 31.3594V28.3633H17.8671V27.295H18.8408V26.054L20.2035 25.6645V27.295H21.8369L21.4964 28.3661H20.2063V31.0165C20.2063 31.5276 20.3792 31.6981 20.7416 31.6981C21.0376 31.6912 21.3251 31.5981 21.569 31.4302L21.9827 32.355C21.5932 32.6229 20.9364 32.7687 20.4005 32.7687C19.4274 32.7952 18.8408 32.2593 18.8408 31.3594ZM9.44922 25.1788H11.6387C13.245 25.1788 13.975 26.1035 13.975 27.0772C13.975 27.7341 13.6587 28.3183 13.0745 28.6329V28.6571C13.9508 28.8761 14.4861 29.5819 14.4861 30.4582C14.4861 31.6261 13.6098 32.673 11.8576 32.673H9.44922V25.1788ZM11.4693 28.3183C12.2235 28.3183 12.6372 27.9046 12.6372 27.3204C12.6372 26.7609 12.2719 26.3225 11.4693 26.3225H10.8355V28.3183H11.4693ZM11.6882 31.5553C12.5888 31.5553 13.0998 31.2147 13.0998 30.4605C13.0998 29.8267 12.613 29.4384 11.8588 29.4384H10.8366V31.5558L11.6882 31.5553Z" fill="white"/>
</g>
<defs>
<clipPath id="clip0_21_150">
<rect width="59" height="59" fill="white"/>
</clipPath>
</defs>
</svg>
