<svg width="59" height="59" viewBox="0 0 59 59" fill="none" xmlns="http://www.w3.org/2000/svg">
<g clip-path="url(#clip0_21_153)">
<path d="M50.9813 35.255C49.9513 35.9064 48.7393 35.9875 47.8199 35.4688C46.6498 34.8051 46.0057 33.2612 46.0057 31.1077V24.6718C46.0057 21.5645 44.7765 19.352 42.7213 18.7546C39.2403 17.7393 36.6198 21.9996 35.6364 23.6025L29.4955 33.5587V21.39C29.4267 18.5875 28.5171 16.9133 26.7913 16.4069C25.6458 16.075 23.9372 16.2078 22.2754 18.7497L8.51609 40.8428C6.67413 37.3459 5.7138 33.4523 5.71851 29.5C5.71851 16.1906 16.3852 5.36408 29.4955 5.36408C42.6033 5.36408 53.2676 16.1906 53.2676 29.5C53.2774 29.5442 53.2725 29.5836 53.275 29.6303C53.3979 32.2091 52.5621 34.2593 50.9813 35.2599V35.255ZM58.553 29.5025L58.5505 29.3672C58.4768 13.1595 45.4722 0 29.493 0C13.4721 0 0.435547 13.2332 0.435547 29.5C0.435547 45.7643 13.4721 59 29.493 59C36.8459 59 43.8645 56.2049 49.2507 51.1333C50.32 50.1254 50.3815 48.4292 49.3908 47.345C49.1571 47.0872 48.8743 46.8785 48.5589 46.7313C48.2435 46.5841 47.9019 46.5014 47.5542 46.4878C47.2064 46.4743 46.8594 46.5304 46.5336 46.6527C46.2078 46.7749 45.9096 46.961 45.6566 47.2C41.291 51.3334 35.5074 53.6366 29.4955 53.6359C22.4745 53.6359 16.159 50.531 11.8029 45.6021L24.2125 25.6773V34.8641C24.2125 39.2743 25.9235 40.7002 27.3592 41.1181C28.7949 41.536 30.9877 41.2508 33.2912 37.5093C35.7446 33.5415 38.2693 29.4041 40.7227 25.5126V31.1077C40.7227 35.2328 42.3747 38.5319 45.2534 40.1544C47.8494 41.622 51.1141 41.4893 53.7715 39.8102C56.9969 37.7747 58.7325 34.0233 58.5505 29.5025H58.553Z" fill="#009BE3"/>
</g>
<defs>
<clipPath id="clip0_21_153">
<rect width="59" height="59" fill="white"/>
</clipPath>
</defs>
</svg>
