<svg width="54" height="54" viewBox="0 0 54 54" fill="none" xmlns="http://www.w3.org/2000/svg">
<g clip-path="url(#clip0_21_155)">
<path d="M0 27V54H27H54V27V0H27H0V27ZM22.2803 13.3945C22.2961 13.4209 22.3594 13.4473 22.4227 13.4473C22.6705 13.4473 23.4879 14.4914 23.6039 14.9607C23.625 15.0293 23.6514 15.082 23.6619 15.082C23.6777 15.082 23.8412 14.9344 24.0205 14.7498C24.6691 14.1064 25.2492 13.8533 26.1035 13.848C26.7627 13.8428 27.116 13.9377 27.5748 14.2436C28.1443 14.6232 28.4818 15.1189 28.5557 15.6885C28.6189 16.1842 28.6084 16.1789 29.0197 15.7834C29.7844 15.0451 30.4119 14.7393 31.4191 14.6074C32.516 14.465 33.4547 14.8078 33.9135 15.5197C34.2088 15.9732 34.2457 16.1578 34.2352 17.0332C34.2246 17.9033 34.1086 18.6469 33.8238 19.7543C33.4547 21.1887 33.4283 21.3205 33.4441 21.5631C33.46 21.7951 33.4652 21.8057 33.6393 21.8215C33.7711 21.8373 33.8871 21.7898 34.1033 21.6475C34.367 21.4734 34.3881 21.4471 34.3564 21.2994C34.2246 20.7141 34.251 19.3588 34.4092 18.6311C34.6676 17.4234 35.2582 16.3318 36.123 15.4617C36.8771 14.7023 37.6154 14.2699 38.6385 13.9904C39.1236 13.8586 39.2291 13.848 40.2627 13.8428C41.1697 13.8428 41.4334 13.8586 41.7287 13.9377C42.3932 14.117 43.1789 14.5125 43.4057 14.7814C43.5217 14.9186 43.5322 15.1506 43.432 15.235C43.2949 15.351 42.6357 15.4512 42.024 15.4512C41.4334 15.4512 40.7373 15.5461 40.3418 15.6779C39.7459 15.873 38.9285 16.4268 38.5436 16.8908C37.8633 17.7135 37.5732 18.4518 37.5152 19.5381C37.4625 20.4346 37.6734 21.0727 38.1797 21.5684C38.6701 22.043 39.324 22.217 40.21 22.1062C40.6529 22.0482 41.1381 21.9111 41.3385 21.7846C41.3912 21.7477 41.3016 21.6316 40.9641 21.2994C40.4473 20.7826 40.1994 20.3502 40.0307 19.6752C39.8988 19.1479 39.883 18.3621 39.9938 17.9508C40.1836 17.2283 40.8217 16.4478 41.4492 16.1525C41.9344 15.9258 42.2982 15.8572 42.8783 15.8836C43.7221 15.9258 44.1387 16.1367 44.5236 16.7115C44.7979 17.1229 44.8875 17.4393 44.9139 18.1406C44.9455 18.8156 44.8611 19.3641 44.6344 20.0074C44.4498 20.54 44.4445 20.5348 44.8506 20.4926C45.0404 20.4715 45.1934 20.4662 45.1934 20.4768C45.1934 20.4873 45.1459 20.5928 45.0879 20.7088C44.9508 20.9988 44.4604 21.5209 44.0648 21.8057C43.8855 21.9322 43.6482 22.1326 43.5322 22.2486C43.4215 22.3699 43.3107 22.4648 43.2896 22.4648C43.2686 22.4648 43.1104 22.6125 42.9416 22.7865C42.3246 23.4352 41.4281 24.01 40.6582 24.2578C40.0729 24.4424 39.6932 24.4846 38.7123 24.4529C37.5732 24.4213 36.9932 24.2842 36.2812 23.8992C36.0018 23.7463 35.4059 23.2822 35.3689 23.1873C35.3479 23.1451 35.3268 23.1398 35.2951 23.182C35.216 23.2822 34.6781 23.6566 34.3301 23.8518C33.75 24.1734 33.2279 24.3158 32.5318 24.3475C31.9623 24.3738 31.899 24.3686 31.667 24.2525C31.2504 24.0469 30.9973 23.6514 30.818 22.9395C30.6703 22.3488 30.6809 20.8301 30.8443 19.96C31.1713 18.1617 31.2293 17.5711 31.0922 17.3021C30.992 17.1123 30.6598 16.933 30.4066 16.9277C29.874 16.9225 29.199 17.6713 28.5926 18.9369C28.0178 20.1445 27.9703 20.6824 28.3184 22.0482C28.4344 22.507 28.5293 22.9764 28.5293 23.0924C28.5293 23.335 28.3184 23.6514 27.9861 23.8939C27.675 24.126 26.7627 24.5584 26.441 24.6322C25.9559 24.743 25.5973 24.59 25.4443 24.2209C25.2387 23.7252 25.2018 23.3719 25.2123 21.9902C25.2229 21.252 25.2439 20.4293 25.2703 20.1709C25.3969 18.7998 25.5129 17.1281 25.4971 16.8592C25.476 16.5164 25.3705 16.316 25.1648 16.2369C24.5162 15.9838 23.8201 16.6482 22.9764 18.3252C22.2803 19.7174 22.2117 20.4926 22.6494 22.1854C22.8814 23.0818 22.8867 23.2348 22.66 23.5248C22.4385 23.8201 22.1906 23.9941 21.542 24.3105C20.3238 24.9117 19.8281 24.7746 19.6119 23.7674C19.5592 23.5301 19.4854 23.4668 19.3799 23.567C19.2639 23.6777 18.4992 24.0469 18.109 24.1787C17.666 24.3264 16.8961 24.4107 16.5428 24.3422C16.0998 24.2578 15.6199 23.6092 15.4195 22.834C15.3668 22.6336 15.3035 22.4648 15.2824 22.4648C15.2666 22.4648 15.1928 22.5439 15.1295 22.6336C14.5072 23.5354 13.6318 24.1471 12.6404 24.3686C12.0814 24.4951 10.8211 24.5057 10.3623 24.3896C9.47109 24.1629 8.6959 23.5459 8.29512 22.7443C7.98398 22.1221 7.9418 21.8742 7.98398 20.7246C8.0209 19.5961 8.1 19.132 8.42168 18.1934C9.08613 16.2791 10.9477 14.4703 12.709 14.0273C13.7162 13.7795 14.8078 13.7795 15.583 14.0326C15.9363 14.1486 15.9469 14.1486 15.9996 14.0537C16.0312 14.001 16.1314 13.8691 16.2264 13.7689C16.3898 13.5844 16.4057 13.5791 16.7537 13.5844C17.2125 13.5896 17.6027 13.7689 18.0457 14.175C18.4359 14.5389 18.6891 14.9186 18.7576 15.2455C18.8104 15.4775 18.7998 15.5197 18.5941 15.9311C18.4729 16.1736 18.2619 16.5744 18.1301 16.8223C17.8295 17.376 17.7873 17.6291 17.7398 19.2586C17.7029 20.5295 17.7609 21.273 17.9191 21.6105C18.0826 21.9691 18.4043 21.8848 19.1162 21.3047L19.5012 20.9936L19.5275 20.1867C19.6119 17.8453 19.8967 16.5322 20.6455 15.024C20.983 14.3332 21.31 13.8164 21.5209 13.6266C21.7898 13.384 22.1959 13.2627 22.2803 13.3945ZM15.9205 26.2037C16.8434 26.4568 17.26 27.2742 17.0912 28.4977C16.9963 29.1727 16.8434 29.5471 16.5164 29.9109C16.084 30.3908 15.6357 30.3592 14.9766 29.8002C14.6021 29.4785 14.407 29.4047 13.9641 29.41C13.1889 29.4205 12.5561 29.9215 11.9707 30.9762C11.7334 31.4139 11.3432 32.5424 11.1744 33.2859C11.0162 34.0084 10.9318 35.1369 11.0109 35.5482C11.1375 36.2285 11.6965 37.1355 12.1922 37.4625C12.5613 37.7104 13.0254 37.8633 13.3893 37.8633C14.0379 37.8633 14.9238 37.4994 15.4723 37.009C15.968 36.5713 18.2092 33.9873 18.2777 33.7764C18.4254 33.3281 18.9527 31.9148 19.0529 31.6934C19.1268 31.5352 19.2586 31.2398 19.343 31.0447C19.7332 30.1799 20.2711 29.4732 20.7141 29.2465C20.809 29.199 20.9883 29.1463 21.1148 29.1305C21.31 29.0988 21.3574 29.1146 21.4049 29.2043C21.6527 29.6631 21.4629 31.2029 20.8986 33.3809C20.308 35.659 20.3449 35.3953 20.308 37.4941L20.2764 39.3662L20.1182 39.6457C19.9389 39.9779 19.7227 40.1361 19.0477 40.442C18.6258 40.6266 18.515 40.6582 18.1934 40.6582C17.7979 40.6582 17.724 40.6213 17.5447 40.3418C17.4234 40.1572 17.2969 39.5086 17.2969 39.0973C17.2969 38.9127 17.2811 38.7598 17.2652 38.7598C17.2494 38.7598 17.1229 38.8547 16.991 38.976C16.6166 39.3082 15.7887 39.8408 15.2877 40.0729C14.465 40.4578 13.5158 40.6582 12.5191 40.6582C11.1744 40.6582 10.1461 40.2521 9.23906 39.3715C8.88047 39.0287 8.36367 38.2957 8.25293 37.9793C8.01562 37.3043 7.97871 36.9562 8.0209 35.6537C8.08945 33.6445 8.43223 32.1996 9.23379 30.5859C9.98789 29.0777 10.9529 27.9281 12.1553 27.1213C12.7881 26.6994 13.3471 26.4516 14.3438 26.1668C14.5811 26.093 15.6199 26.1193 15.9205 26.2037ZM23.3139 26.1826C24.7852 26.3355 25.7713 26.6625 26.5729 27.2689C26.7205 27.3797 26.8682 27.4746 26.8945 27.4746C26.9209 27.4746 26.9895 27.4061 27.0527 27.3164C27.1846 27.1318 27.7014 26.7521 28.0811 26.5623C28.6189 26.2986 28.9195 26.2354 29.7422 26.2354C30.4541 26.2354 30.5279 26.2459 30.8021 26.3725C31.4666 26.6836 31.783 27.2373 31.8832 28.2551C31.899 28.466 31.9359 28.6453 31.9518 28.6611C31.9729 28.6717 32.073 28.5346 32.1785 28.3553C33.0434 26.8576 34.2773 26.093 35.7012 26.1721C36.8666 26.2406 37.6154 26.7363 37.9688 27.675C38.1111 28.0441 38.2324 28.8246 38.2324 29.3572C38.2324 29.5998 38.243 29.7949 38.2588 29.7949C38.2693 29.7949 38.5014 29.5734 38.7703 29.3045C39.324 28.7508 39.8461 28.4396 40.4631 28.2973C41.1328 28.1391 41.908 28.2234 42.4037 28.4977C43.1895 28.9406 43.527 29.7422 43.527 31.166C43.5217 32.2945 43.4109 32.9748 42.7781 35.6484C42.3352 37.5311 42.3193 37.9318 42.6727 38.1955C42.7992 38.2904 42.8414 38.2957 43.026 38.2377C43.3266 38.148 43.9225 37.6576 44.8822 36.7189C45.3357 36.276 45.7418 35.9121 45.784 35.9121C45.8789 35.9121 45.9949 36.0439 46.0793 36.2443C46.1479 36.4078 46.1637 37.0775 46.1004 37.1566C46.0793 37.183 46.0266 37.299 45.9897 37.4098C45.784 38.0162 45.0088 38.976 44.3022 39.4928C43.4848 40.0887 42.7518 40.3787 41.9186 40.4314C41.0273 40.4842 40.5422 40.2785 40.1256 39.6773C39.6932 39.0445 39.7195 38.1006 40.2311 36.334C41.001 33.6604 41.2594 32.4369 41.2277 31.6195C41.2119 31.1502 41.2014 31.1027 41.0643 30.9709C40.7584 30.6598 40.1836 30.8496 39.5771 31.4561C38.6016 32.4264 37.473 34.6781 37.1303 36.334C36.951 37.2094 36.8877 37.8791 36.9562 38.2535C37.0512 38.7703 37.0354 39.3293 36.9141 39.593C36.7717 39.9094 36.3656 40.2838 35.949 40.4842C35.6432 40.6371 35.543 40.6582 35.1791 40.6582C34.7678 40.6582 34.7625 40.6529 34.599 40.4736C34.3617 40.2047 34.2563 39.7828 34.2615 39.1553C34.2668 38.4434 34.425 37.742 35.1738 35.1211C35.7381 33.1436 36.0703 31.3875 36.0703 30.3961C36.0703 29.2043 35.7434 28.698 35.0156 28.7508C34.1772 28.8088 33.2596 29.7053 32.5424 31.1607C32.0045 32.2576 31.4455 33.9451 31.0869 35.5693C30.9287 36.2865 30.9287 36.2602 31.166 37.6629C31.3348 38.6332 31.34 38.7334 31.282 39.0762C31.1607 39.7881 30.9762 40.0043 30.1482 40.3893C29.6367 40.6318 29.5471 40.6582 29.2096 40.6582C28.909 40.6582 28.8035 40.6371 28.677 40.5422C28.4871 40.4104 28.2867 39.999 28.2393 39.6404C28.2182 39.5033 28.1918 39.3926 28.176 39.3926C28.1654 39.3926 28.0178 39.4875 27.849 39.5982C27.348 39.941 26.6309 40.2732 26.1879 40.3682C25.6025 40.5 24.9434 40.4578 24.5531 40.268C23.7516 39.8777 23.4721 39.1236 23.1768 36.5449C23.0924 35.7855 22.9025 34.7256 22.8287 34.5885C22.8076 34.541 22.6389 34.4514 22.4648 34.3881C22.0535 34.2352 21.7055 33.9135 21.6264 33.6023C21.4945 33.1225 21.7371 32.785 22.3225 32.6373C22.66 32.5582 23.335 32.6004 23.5881 32.7217L23.7885 32.8166L23.9994 32.6109C24.3 32.3209 24.6586 31.7725 24.7957 31.4033C24.8959 31.1344 24.9117 30.9762 24.9117 30.3223C24.917 29.5629 24.917 29.5523 24.743 29.2043C24.4582 28.6295 23.9309 28.2287 23.2031 28.0494C22.7918 27.9439 21.31 27.9598 20.7193 28.0758C19.9916 28.2129 19.6436 28.3447 18.5941 28.8721C17.9033 29.2148 17.8348 29.2412 17.5131 29.2412H17.165L17.1492 29.0725C17.0965 28.5187 18.2197 27.4166 19.4432 26.826C20.1129 26.5043 20.8459 26.2934 21.6738 26.1879C22.4121 26.093 22.4438 26.093 23.3139 26.1826Z" fill="#009BE3"/>
<path d="M14.8973 15.5298C13.9955 15.8304 13.3574 16.2259 12.6455 16.9168C12.1129 17.4336 11.7912 17.8923 11.5486 18.4777C11.1162 19.5324 11.0529 20.9246 11.4115 21.6101C11.5486 21.8738 11.8756 22.0847 12.2131 22.1269C13.194 22.2482 14.2012 21.5574 14.8234 20.3498C15.066 19.8699 15.1293 19.564 15.1346 18.9259C15.1346 17.982 15.335 16.1996 15.5037 15.6089C15.5512 15.4402 15.5354 15.34 15.4615 15.3453C15.4404 15.3505 15.1873 15.4296 14.8973 15.5298Z" fill="#009BE3"/>
<path d="M42.6779 17.8084C42.4301 18.1617 42.3985 18.7154 42.5936 19.2111C42.7149 19.5223 42.9152 19.8281 42.9943 19.8281C43.1526 19.8281 43.3635 19.074 43.3688 18.4729C43.374 18.0615 43.3582 17.9666 43.2633 17.84C43.0998 17.6238 42.8151 17.608 42.6779 17.8084Z" fill="#009BE3"/>
<path d="M28.4766 28.197C28.4344 28.2128 28.234 28.3446 28.0389 28.4923C27.7436 28.7085 27.6855 28.777 27.7066 28.8667C27.7963 29.1778 27.8543 29.8739 27.8279 30.2958C27.7488 31.5931 27.3217 32.4632 26.3303 33.3333C26.0033 33.6181 25.3494 34.0294 25.0646 34.1243C24.9697 34.1559 24.8906 34.2087 24.8906 34.2509C24.8906 34.2878 24.9539 34.4829 25.0277 34.678C25.1016 34.8784 25.2809 35.4901 25.4232 36.0386C26.0139 38.2956 26.3355 38.6331 27.2479 37.9475C27.617 37.6628 28.2287 37.0827 28.3025 36.9403C28.3342 36.8823 28.3764 36.6661 28.3975 36.4657C28.4186 36.26 28.5609 35.3372 28.7191 34.4091C29.0197 32.6583 29.0461 32.5054 29.3256 31.0604C29.4521 30.4118 29.4943 30.0374 29.4996 29.5839C29.5049 28.8667 29.4311 28.5767 29.1885 28.3341C29.0408 28.1864 28.9775 28.1601 28.7877 28.1653C28.6611 28.1653 28.5187 28.1811 28.4766 28.197Z" fill="#009BE3"/>
</g>
<defs>
<clipPath id="clip0_21_155">
<rect width="54" height="54" rx="10" fill="white"/>
</clipPath>
</defs>
</svg>
