<svg width="50" height="54" viewBox="0 0 50 54" fill="none" xmlns="http://www.w3.org/2000/svg">
<path d="M22.0207 0.163418C20.455 0.440212 19.6666 0.739151 17.0985 1.99026C11.2977 4.82463 5.09141 8.69976 3.08648 10.748C2.35434 11.4788 1.57715 12.5195 1.57715 12.741C1.57715 12.7852 1.67852 12.9292 1.80242 13.051C2.00517 13.2503 2.17412 13.2724 3.25543 13.2724C3.93125 13.2724 4.6296 13.217 4.79856 13.1506C4.97877 13.0952 5.45185 12.7742 5.85734 12.4531C8.57188 10.283 14.2488 6.83969 18.36 4.87999C20.838 3.68424 21.0858 3.58459 22.1333 3.35209C23.4286 3.05315 25.963 3.07529 27.1682 3.39638C28.7113 3.80603 33.9264 6.46326 37.5082 8.65547C39.5357 9.89551 42.2277 11.7224 42.9373 12.3202C44.1763 13.3831 45.528 15.4868 46.0573 17.1807C46.4403 18.4097 46.5417 20.4469 46.5417 26.8907C46.5304 33.0466 46.4516 34.9509 46.1249 36.202C45.742 37.6635 44.4804 39.9 43.4554 40.9518C42.5093 41.9261 38.4093 44.6498 34.9739 46.5984C32.7775 47.8385 28.3283 50.0307 27.4836 50.2853C26.0756 50.7061 24.2171 50.8057 22.5726 50.5289C21.7278 50.385 21.266 50.2189 19.7116 49.466C15.7919 47.5838 11.6807 45.2587 8.78589 43.288C7.8848 42.679 6.6458 41.8376 6.02629 41.4279L4.89993 40.675L3.54829 40.6418C2.34308 40.6086 2.1516 40.6307 1.92632 40.819C1.54336 41.1179 1.65599 41.439 2.51203 42.4687C3.41313 43.5758 4.32548 44.3066 6.74717 45.923C10.6782 48.5249 13.618 50.2078 17.6842 52.1786C20.6465 53.6179 21.5701 53.8837 23.9355 53.9833C26.8866 54.094 28.4635 53.6844 32.2143 51.8464C36.2692 49.8535 39.6596 47.8717 43.2527 45.3916C45.7307 43.6755 46.6205 42.7787 47.837 40.7636C49.3801 38.195 49.6392 37.0656 49.8983 31.7069C50.1686 26.1489 49.8757 18.454 49.3238 16.4721C48.648 14.0696 46.8007 11.2573 44.9084 9.76265C42.2728 7.68115 36.7873 4.39283 32.2143 2.14527C29.4998 0.80558 28.4522 0.418068 26.8753 0.152348C25.6363 -0.0580177 23.2372 -0.0469437 22.0207 0.163418Z" fill="#009BE3"/>
<path d="M7.23095 17.3461C6.51008 17.6007 6.16091 17.9107 5.83426 18.5751C5.59772 19.029 5.5752 19.2504 5.5752 20.6898C5.5752 22.2509 5.58646 22.3173 5.91311 22.9595C6.21722 23.5463 6.32986 23.657 6.92683 23.9559C7.54634 24.2659 7.69276 24.2881 8.78534 24.2881C9.82159 24.277 10.0469 24.2438 10.6101 23.9891C11.3084 23.6681 11.7252 23.1698 11.9166 22.4059C12.3672 20.6344 12.0631 18.5861 11.2408 17.8554C10.6889 17.3572 10.2383 17.2243 9.01061 17.18C8.06446 17.1468 7.71529 17.18 7.23095 17.3461ZM9.81033 18.874C10.1144 19.184 10.2383 19.7708 10.2496 20.8891C10.2496 21.8855 10.0694 22.4834 9.70896 22.6716C9.35978 22.8598 8.08699 22.8266 7.8054 22.6273C7.46749 22.3948 7.32106 21.808 7.32106 20.6898C7.32106 18.9183 7.60265 18.5529 8.87545 18.6193C9.40484 18.6415 9.64138 18.7079 9.81033 18.874Z" fill="#009BE3"/>
<path d="M15.3408 17.3572C14.237 17.7336 13.7076 18.4754 13.4936 19.9037C13.3584 20.8891 13.4936 22.2177 13.809 22.8266C14.068 23.3248 14.5073 23.7677 15.0367 24.0445C15.4422 24.2659 15.6562 24.2881 17.0642 24.2881C18.1905 24.277 18.7425 24.2327 19.0015 24.122L19.3507 23.9559L19.0578 23.2584C18.7763 22.572 18.7537 22.5609 18.4158 22.6273C17.6386 22.7823 16.5798 22.8155 16.1856 22.6938C15.6675 22.5277 15.4309 22.1512 15.3183 21.343C15.1831 20.3908 15.3521 19.3944 15.7125 19.0401C15.9829 18.7633 16.0617 18.7522 17.2444 18.7522H18.4947L18.8213 18.11C19.0691 17.645 19.1142 17.4568 19.0128 17.4236C18.0554 17.0914 16.2194 17.0582 15.3408 17.3572Z" fill="#009BE3"/>
<path d="M0 20.6901V24.1223H0.844774H1.68955L1.71208 21.4872L1.74587 18.8632L3.05245 18.83L4.35904 18.7968L4.66316 18.1103C4.82085 17.7339 4.95601 17.3907 4.95601 17.3353C4.95601 17.291 3.84091 17.2578 2.47801 17.2578H0V20.6901Z" fill="#009BE3"/>
<path d="M9.76601 27.3328C8.84239 27.5653 8.27921 28.0414 7.86246 28.9382C7.52455 29.6911 7.49075 31.7283 7.8174 32.6362C8.25668 33.8763 9.25915 34.4409 11.0275 34.4409C12.03 34.4409 13.2352 34.2527 13.3479 34.0866C13.3816 34.0313 13.2915 33.6991 13.1451 33.3448L12.886 32.7027L12.4355 32.758C12.199 32.7912 11.5795 32.8134 11.0726 32.8134C10.2616 32.8134 10.1265 32.7802 9.87865 32.5476C9.50695 32.2155 9.3042 31.374 9.37179 30.444C9.48442 29.0047 9.88991 28.7057 11.5457 28.8054L12.5707 28.8718L12.9311 28.2186L13.3028 27.5653L12.8748 27.4436C12.2778 27.2775 10.2841 27.2111 9.76601 27.3328Z" fill="#009BE3"/>
<path d="M0 27.5425C0 27.5979 0.563183 29.1258 1.239 30.9305C1.92609 32.7463 2.478 34.3074 2.478 34.407C2.478 34.5067 2.27526 34.9385 2.01619 35.3592C1.76839 35.791 1.4868 36.2671 1.39669 36.4332L1.22774 36.7432H2.24147H3.24393L3.80712 35.4921C4.79832 33.3331 5.91342 30.4323 6.56671 28.3508L6.8483 27.4429H5.96974H5.09117L5.02359 27.8415C4.91095 28.384 3.7508 31.7719 3.6269 31.8937C3.52552 31.9934 3.18761 31.1962 2.19641 28.5722L1.76839 27.4429H0.878565C0.394228 27.4429 0 27.4872 0 27.5425Z" fill="#009BE3"/>
<path d="M15.3863 27.6879C15.3525 27.8319 15.2962 28.3301 15.2624 28.8172C15.1723 29.9355 14.8231 31.862 14.474 33.1795C14.3163 33.7552 14.1924 34.2424 14.1924 34.2646C14.1924 34.2867 14.5979 34.3088 15.0935 34.3088H15.9833L16.1635 33.722C16.4451 32.7588 16.7605 31.2198 16.8957 30.0684L17.0308 28.9944H17.9207H18.8105V31.5963V34.1981H19.6553H20.5V30.8212V27.4443H17.9657H15.4314L15.3863 27.6879Z" fill="#009BE3"/>
<path d="M21.8516 27.5204C21.8516 27.5757 22.426 29.1258 23.1356 30.9858L24.4197 34.3627L23.8114 35.481C23.4735 36.101 23.2032 36.6435 23.2032 36.6767C23.2032 36.7099 23.6312 36.7432 24.1381 36.7432H25.0842L25.6024 35.6581C26.357 34.0749 27.4271 31.3955 28.1142 29.3472C28.4521 28.3618 28.7224 27.5204 28.7224 27.4982C28.7224 27.465 28.3394 27.4429 27.8776 27.4429C27.2919 27.4429 27.0103 27.4872 26.9878 27.5757C26.7287 28.4947 25.5235 31.9823 25.4559 31.9823C25.4109 31.9823 24.9941 30.9637 24.5436 29.7126L23.7101 27.4429H22.7864C22.2683 27.4429 21.8516 27.4761 21.8516 27.5204Z" fill="#009BE3"/>
<path d="M29.9609 30.8204V34.1973H30.862H31.7631V31.5954V28.9935H33.0584H34.3538L34.534 28.5728C34.6354 28.3514 34.7818 27.9971 34.8719 27.7978L35.0296 27.4435H32.4953H29.9609V30.8204Z" fill="#009BE3"/>
<path d="M36.0439 29.8566C36.0439 32.4917 36.1453 33.1338 36.6634 33.7317C36.8211 33.9199 37.159 34.1524 37.4181 34.2521C38.1277 34.5289 39.761 34.4957 41.0563 34.1746L42.07 33.9199L42.1038 30.6759L42.1263 27.4429H41.2252H40.3241V30.0891V32.7463L39.7384 32.8128C38.9049 32.9124 38.3079 32.7574 38.0263 32.392C37.8123 32.1042 37.7898 31.9049 37.756 29.7569L37.7222 27.4429H36.8775H36.0439V29.8566Z" fill="#009BE3"/>
</svg>
