<svg width="49" height="49" viewBox="0 0 49 49" fill="none" xmlns="http://www.w3.org/2000/svg">
<path d="M11.4847 11.2925C11.4607 11.3308 11.3794 11.3595 11.2741 11.3547C11.1641 11.3499 11.1019 11.3739 11.1019 11.4121C11.1019 11.4456 11.0157 11.4839 10.9009 11.4983C10.786 11.5126 10.6903 11.5509 10.6808 11.5748C10.6712 11.6035 10.609 11.6275 10.5468 11.6275C10.4511 11.6275 10.4319 11.6514 10.4319 11.7806C10.4271 11.9242 10.4224 11.9289 10.3649 11.8524C10.2979 11.7615 10.1927 11.7423 10.1927 11.8189C10.1927 11.8428 10.164 11.8667 10.1305 11.8667C10.097 11.8667 10.0348 11.9098 9.98691 11.9624C9.94385 12.0151 9.87207 12.0581 9.83379 12.0581C9.79551 12.0581 9.76201 12.0773 9.76201 12.106C9.76201 12.1299 9.72851 12.1538 9.69023 12.1538C9.65195 12.1538 9.61846 12.1873 9.61846 12.2256C9.61846 12.2926 9.56582 12.3165 9.44141 12.3022C9.40791 12.2974 9.3792 12.3261 9.3792 12.3692C9.3792 12.4075 9.33613 12.441 9.28349 12.441C9.23086 12.441 9.18779 12.4601 9.18779 12.484C9.18779 12.5079 9.13516 12.5414 9.06816 12.5558C8.95332 12.5845 8.8959 12.7281 8.99639 12.7281C9.09687 12.7281 9.03945 12.8238 8.93896 12.8285C8.87676 12.8285 8.85762 12.8429 8.89111 12.8573C8.97246 12.8908 8.96289 12.9673 8.87676 12.9673C8.83848 12.9673 8.80498 12.9482 8.80498 12.9243C8.80498 12.9003 8.77148 12.8716 8.73799 12.8573C8.69014 12.8381 8.67578 12.8525 8.69492 12.9003C8.70928 12.9434 8.68535 12.9673 8.61836 12.9673C8.56094 12.9673 8.51787 12.996 8.51787 13.0391C8.51787 13.0774 8.48437 13.1109 8.44131 13.1109C8.39346 13.1109 8.37432 13.1396 8.39346 13.1826C8.40781 13.2257 8.39346 13.2544 8.35039 13.2544C8.31211 13.2544 8.27861 13.2736 8.27861 13.3023C8.27861 13.3262 8.24512 13.3501 8.20684 13.3501C8.16855 13.3501 8.13506 13.3836 8.13506 13.4219C8.13506 13.4602 8.10156 13.4937 8.06328 13.4937C8.025 13.4937 7.9915 13.5368 7.9915 13.5894C7.9915 13.642 7.95801 13.6851 7.91973 13.6851C7.88144 13.6851 7.84795 13.7042 7.84795 13.7329C7.84795 13.7569 7.81445 13.7808 7.77617 13.7808C7.73789 13.7808 7.70439 13.8047 7.70439 13.8334C7.70439 13.8669 7.62783 13.9626 7.53213 14.0488C7.44121 14.1397 7.38379 14.2115 7.4125 14.2115C7.51299 14.2115 7.46514 14.2976 7.34551 14.3263C7.27373 14.3454 7.21631 14.4029 7.19717 14.4746C7.18281 14.5416 7.14932 14.5943 7.1206 14.5943C7.04404 14.5943 6.88135 14.7761 6.91484 14.8287C6.9292 14.8575 6.91006 14.8814 6.87178 14.8814C6.82393 14.8814 6.79521 14.9244 6.79521 14.9962C6.79521 15.0584 6.7665 15.1254 6.73779 15.135C6.68994 15.1541 6.68994 15.1637 6.73779 15.1637C6.85264 15.1733 6.79521 15.2642 6.6708 15.2642C6.52725 15.2642 6.42676 15.3503 6.38369 15.5226C6.36934 15.5896 6.33584 15.647 6.31191 15.647C6.28799 15.647 6.26885 15.6805 6.26885 15.7188C6.26885 15.7571 6.23535 15.7906 6.19707 15.7906C6.14922 15.7906 6.12529 15.8384 6.12529 15.9341C6.12529 16.0298 6.10137 16.0777 6.05352 16.0777C6.01523 16.0777 5.98174 16.1112 5.98174 16.1542C5.98174 16.2021 5.95303 16.2212 5.90996 16.2021C5.85732 16.1829 5.83818 16.2117 5.83818 16.2978C5.83818 16.3648 5.78555 16.4653 5.71855 16.5275C5.65156 16.5897 5.59893 16.6615 5.59893 16.695C5.59893 16.7237 5.56543 16.7476 5.52715 16.7476C5.48887 16.7476 5.45537 16.7667 5.45537 16.7954C5.45537 16.8194 5.4793 16.8433 5.51279 16.8433C5.5415 16.8433 5.50801 16.8911 5.44102 16.9534C5.36924 17.0108 5.31182 17.1113 5.31182 17.1687C5.31182 17.2309 5.2831 17.274 5.24004 17.274C5.19219 17.274 5.16826 17.3218 5.16826 17.4175C5.16826 17.5132 5.14434 17.5611 5.09648 17.5611C5.0582 17.5611 5.02471 17.5946 5.02471 17.6376C5.02471 17.6807 4.996 17.7046 4.9625 17.6903C4.91943 17.6759 4.90508 17.7142 4.90508 17.8243C4.90986 17.9391 4.89551 17.9774 4.84766 17.9582C4.76631 17.9247 4.76631 18.0731 4.84766 18.1018C4.89072 18.1209 4.89072 18.1401 4.8333 18.1784C4.79502 18.2023 4.74717 18.2118 4.72803 18.2023C4.70889 18.1879 4.68975 18.2118 4.68975 18.2501C4.68975 18.2932 4.64668 18.3267 4.59404 18.3267C4.51748 18.3267 4.49834 18.3602 4.49834 18.4702C4.49834 18.566 4.47441 18.6138 4.42656 18.6138C4.3835 18.6138 4.35478 18.6569 4.35478 18.7334C4.35478 18.8004 4.33564 18.8531 4.31172 18.8531C4.28779 18.8531 4.2543 18.9153 4.23516 18.9966C4.21602 19.0732 4.17773 19.1402 4.14424 19.1402C4.10117 19.1402 4.08682 19.188 4.09639 19.2837C4.11074 19.3842 4.0916 19.4273 4.04375 19.4273C4.00068 19.4273 3.97197 19.4703 3.97197 19.5421C3.97197 19.6043 3.93848 19.6713 3.89541 19.6857C3.85234 19.7 3.82842 19.7479 3.84756 19.7862C3.86191 19.8244 3.84277 19.8867 3.80449 19.9249C3.76621 19.9584 3.72314 20.0446 3.704 20.1163C3.68965 20.1833 3.65615 20.2408 3.63223 20.2408C3.6083 20.2408 3.58916 20.2743 3.58916 20.3125C3.58916 20.3508 3.54609 20.4178 3.49824 20.4657C3.43603 20.5231 3.40732 20.5996 3.41689 20.6858C3.42646 20.7623 3.40254 20.8485 3.36904 20.8867C3.33076 20.9202 3.30205 20.992 3.30205 21.0447C3.30205 21.0973 3.26855 21.1499 3.23027 21.1691C3.19199 21.1834 3.1585 21.2504 3.1585 21.3174C3.1585 21.394 3.12979 21.437 3.08672 21.437C3.03408 21.437 3.01494 21.4945 3.01494 21.6524C3.01494 21.8103 2.9958 21.8677 2.94316 21.8677C2.9001 21.8677 2.87139 21.9108 2.87139 21.9825C2.87139 22.0448 2.84268 22.107 2.80439 22.1213C2.76133 22.1405 2.74219 22.2122 2.75176 22.3414C2.75654 22.4802 2.74219 22.5376 2.69912 22.5376C2.65127 22.5376 2.63213 22.5998 2.63213 22.729C2.63213 22.8678 2.61299 22.9204 2.56035 22.9204C2.51728 22.9204 2.48857 22.9635 2.48857 23.0353C2.48857 23.0975 2.45986 23.1645 2.43115 23.1741C2.3833 23.1932 2.3833 23.2028 2.43115 23.2028C2.5125 23.2075 2.50293 23.3033 2.4168 23.3033C2.37852 23.3033 2.34502 23.3463 2.34502 23.3942C2.34502 23.4612 2.36895 23.4803 2.44072 23.4612C2.51728 23.442 2.53164 23.4516 2.50771 23.5138C2.48857 23.5617 2.42158 23.5904 2.34023 23.5904C2.21104 23.5904 2.20146 23.6047 2.20146 23.777C2.20146 23.9014 2.17754 23.9732 2.1249 23.9923C2.07705 24.0115 2.0627 24.0545 2.08184 24.1119C2.1249 24.2507 2.05791 24.4613 1.98135 24.4325C1.92871 24.4134 1.91914 24.4469 1.94307 24.5952C1.96699 24.7436 1.95742 24.7914 1.89521 24.8154C1.83779 24.8345 1.81865 24.9063 1.81865 25.0738C1.81865 25.2365 1.79951 25.313 1.74687 25.3322C1.70381 25.3465 1.6751 25.3848 1.67988 25.4183C1.68467 25.4518 1.68467 25.5714 1.67988 25.6815C1.6751 25.8298 1.65596 25.8872 1.60332 25.8872C1.55068 25.8872 1.53154 25.9494 1.53154 26.1456C1.53154 26.3227 1.5124 26.4136 1.46455 26.428C1.4167 26.4471 1.39756 26.5284 1.39756 26.6816C1.39756 26.806 1.36885 26.9208 1.34014 26.94C1.25879 26.9926 1.25879 27.318 1.34014 27.3754C1.39756 27.4137 1.39756 27.4328 1.35449 27.452C1.321 27.4616 1.29229 27.5046 1.29229 27.5429C1.29229 27.5812 1.25879 27.6242 1.22051 27.6386C1.16787 27.6625 1.14873 27.7439 1.14873 27.9688C1.14873 28.1363 1.1248 28.2798 1.10088 28.2894C1.07217 28.299 1.03867 28.4282 1.02432 28.5813C1.00039 28.811 1.00996 28.854 1.07217 28.854C1.11523 28.854 1.14873 28.8732 1.14873 28.9019C1.14873 28.9258 1.11523 28.9497 1.07695 28.9497C1.03867 28.9497 1.00518 28.9784 1.00518 29.0167C1.00518 29.055 0.976465 29.0933 0.942969 29.1076C0.895117 29.1268 0.875977 29.256 0.866406 29.5766C0.861621 29.9307 0.84248 30.0312 0.775488 30.0838C0.698926 30.1412 0.698926 30.146 0.775488 30.1173C0.82334 30.103 0.861621 30.1125 0.861621 30.1412C0.861621 30.17 0.83291 30.1939 0.794629 30.1939C0.741992 30.1939 0.727637 30.2657 0.727637 30.4666C0.722852 31.1653 0.718066 31.2466 0.655859 31.2466C0.612793 31.2466 0.598437 31.3854 0.598437 31.7825C0.598437 32.2563 0.608008 32.3233 0.68457 32.3376C0.799414 32.3616 0.794629 32.5865 0.679785 32.5865C0.598437 32.5865 0.593652 32.6822 0.588867 34.0986C0.588867 35.314 0.598437 35.6202 0.651074 35.6729C0.703711 35.7207 0.703711 35.7447 0.655859 35.759C0.612793 35.7782 0.612793 35.7925 0.660645 35.826C0.698926 35.8547 0.722852 36.0222 0.732422 36.3045C0.737207 36.5438 0.756348 36.716 0.770703 36.6921C0.789844 36.6634 0.84248 36.6825 0.904687 36.7448C1.02432 36.8644 1.0291 36.8931 0.933398 36.8931C0.880762 36.8931 0.861621 36.9505 0.861621 37.1036C0.861621 37.2424 0.880762 37.3142 0.919043 37.3094C1.08174 37.3046 1.14873 37.3285 1.14873 37.4003C1.14873 37.4482 1.12002 37.4673 1.07695 37.4482C1.01953 37.429 1.00518 37.4673 1.00996 37.6491C1.01475 37.7736 1.02432 37.8358 1.03867 37.7879C1.08174 37.63 1.14873 37.7114 1.14873 37.9219C1.14873 38.0415 1.16787 38.1372 1.19658 38.1372C1.22051 38.1372 1.25879 38.1947 1.27314 38.2664C1.29229 38.343 1.33057 38.4148 1.35928 38.4387C1.39756 38.4626 1.38799 38.4866 1.34014 38.52C1.29229 38.5488 1.2875 38.5679 1.33057 38.5679C1.35928 38.5679 1.38799 38.6205 1.38799 38.6875C1.38799 38.7737 1.40713 38.7976 1.45977 38.7784C1.5124 38.7545 1.53154 38.7832 1.53154 38.8981C1.53154 38.9986 1.55547 39.0464 1.60332 39.0464C1.65117 39.0464 1.6751 39.0943 1.6751 39.19C1.6751 39.2857 1.69902 39.3335 1.74687 39.3335C1.78994 39.3335 1.81865 39.3766 1.81865 39.4436C1.81865 39.6063 2.0627 39.8599 2.21582 39.8599C2.32109 39.8599 2.34502 39.8838 2.34502 39.9747C2.34502 40.0465 2.31152 40.0991 2.26367 40.1135C2.18232 40.1326 2.18232 40.1374 2.26367 40.1422C2.30674 40.1422 2.34502 40.1805 2.34502 40.2188C2.34502 40.2571 2.37852 40.2906 2.4168 40.2906C2.45508 40.2906 2.48857 40.3097 2.48857 40.3384C2.48857 40.3623 2.52207 40.3863 2.56035 40.3863C2.6082 40.3863 2.63213 40.4341 2.63213 40.5298C2.63213 40.659 2.64648 40.6734 2.78047 40.6734C2.89531 40.6734 2.92402 40.6925 2.9001 40.7451C2.88574 40.7882 2.9001 40.8169 2.94316 40.8169C2.98145 40.8169 3.01494 40.8504 3.01494 40.8887C3.01494 40.927 3.04844 40.9605 3.08672 40.9605C3.125 40.9605 3.1585 40.994 3.1585 41.0323C3.1585 41.0753 3.20156 41.104 3.27334 41.104C3.36426 41.104 3.39775 41.1375 3.42168 41.2524C3.45039 41.3768 3.46953 41.3959 3.57002 41.372C3.65137 41.3481 3.68486 41.3624 3.68486 41.4151C3.68486 41.4533 3.71836 41.4868 3.75664 41.4868C3.79492 41.4868 3.82842 41.5203 3.82842 41.5586C3.82842 41.6017 3.87148 41.6304 3.94326 41.6304C4.00547 41.6304 4.06768 41.6639 4.08682 41.7022C4.10117 41.7405 4.16816 41.774 4.23516 41.774C4.31172 41.774 4.35478 41.8027 4.35478 41.8457C4.35478 41.8936 4.40264 41.9175 4.49834 41.9175C4.59883 41.9175 4.64189 41.9414 4.64189 41.9941C4.64189 42.0515 4.67061 42.0658 4.76152 42.0419C4.84766 42.018 4.89072 42.0324 4.90986 42.085C4.929 42.1328 5.00078 42.1568 5.1252 42.1568C5.24482 42.1568 5.31182 42.1807 5.31182 42.219C5.31182 42.2573 5.40273 42.2812 5.57978 42.2907C5.72812 42.3003 5.88125 42.3338 5.91475 42.3721C6.01045 42.463 7.79531 42.4343 7.85273 42.3386C7.88144 42.2955 8.03935 42.2716 8.35039 42.262C8.59922 42.2525 8.80498 42.2238 8.80498 42.1998C8.80498 42.1759 8.89111 42.1568 8.99639 42.1568C9.13516 42.1568 9.18779 42.1376 9.18779 42.085C9.18779 42.0324 9.24043 42.0132 9.38398 42.0132C9.49404 42.0132 9.60889 41.9797 9.64717 41.9414C9.69023 41.9032 9.78594 41.8697 9.8625 41.8697C9.95342 41.8697 10.0013 41.8457 10.0013 41.7979C10.0013 41.75 10.0491 41.7261 10.1448 41.7261C10.2262 41.7261 10.2884 41.707 10.2884 41.683C10.2884 41.6591 10.3554 41.6256 10.4319 41.6065C10.5133 41.5873 10.5755 41.5538 10.5755 41.5299C10.5755 41.506 10.6281 41.4773 10.6951 41.4581C10.7621 41.4438 10.8147 41.4103 10.8147 41.3864C10.8147 41.3624 10.8817 41.3433 10.9583 41.3433C11.054 41.3433 11.1019 41.3194 11.1019 41.2715C11.1019 41.2332 11.1354 41.1997 11.1736 41.1997C11.2119 41.1997 11.2454 41.1806 11.2454 41.1519C11.2454 41.128 11.298 41.0945 11.365 41.0753C11.432 41.061 11.4847 41.0179 11.4847 40.9796C11.4847 40.9413 11.5182 40.9126 11.5564 40.9126C11.5947 40.9126 11.6282 40.8935 11.6282 40.8696C11.6282 40.8456 11.6809 40.8121 11.7479 40.7978C11.8148 40.7786 11.8675 40.7451 11.8675 40.7212C11.8675 40.6925 11.9345 40.6734 12.011 40.6734C12.1067 40.6734 12.1546 40.6494 12.1546 40.6016C12.1546 40.5633 12.1881 40.5298 12.2264 40.5298C12.2646 40.5298 12.2981 40.4963 12.2981 40.458C12.2981 40.4198 12.3316 40.3863 12.3699 40.3863C12.4082 40.3863 12.4417 40.3528 12.4417 40.3145C12.4417 40.2762 12.4656 40.2427 12.4943 40.2427C12.5278 40.2427 12.5996 40.1901 12.6618 40.1231C12.724 40.0561 12.8149 40.0034 12.8724 40.0034C12.925 40.0034 12.9681 39.9699 12.9681 39.9317C12.9681 39.8934 13.0016 39.8599 13.0398 39.8599C13.0781 39.8599 13.1116 39.8264 13.1116 39.7881C13.1116 39.7498 13.1355 39.7163 13.1595 39.7163C13.1882 39.7163 13.2073 39.6828 13.2073 39.6446C13.2073 39.6063 13.2408 39.5728 13.2791 39.5728C13.3174 39.5728 13.3509 39.5393 13.3509 39.501C13.3509 39.4627 13.3844 39.4292 13.4227 39.4292C13.4609 39.4292 13.4944 39.4053 13.4944 39.3814C13.4944 39.3527 13.5279 39.3335 13.5662 39.3335C13.6045 39.3335 13.638 39.3 13.638 39.2617C13.638 39.2235 13.6715 39.19 13.7098 39.19C13.748 39.19 13.7815 39.1565 13.7815 39.1182C13.7815 39.0799 13.815 39.0464 13.8533 39.0464C13.8916 39.0464 13.9251 39.0129 13.9251 38.9746C13.9251 38.9364 13.949 38.9029 13.9729 38.9029C14.0017 38.9029 14.0208 38.8694 14.0208 38.8311C14.0208 38.7928 14.0543 38.7593 14.0926 38.7593C14.1309 38.7593 14.1644 38.7258 14.1644 38.6875C14.1644 38.6492 14.1979 38.6157 14.2361 38.6157C14.2744 38.6157 14.3079 38.5918 14.3079 38.5679C14.3079 38.5392 14.3414 38.52 14.3797 38.52C14.4228 38.52 14.4515 38.477 14.4515 38.4004C14.4515 38.3239 14.4802 38.2808 14.5232 38.2808C14.5615 38.2808 14.595 38.2473 14.595 38.209C14.595 38.1707 14.6189 38.1372 14.6429 38.1372C14.6716 38.1372 14.6907 38.099 14.6955 38.0511C14.6955 38.0032 14.7099 37.9937 14.7242 38.0272C14.7625 38.1324 14.8343 38.0942 14.8343 37.9698C14.8343 37.8932 14.863 37.8501 14.9061 37.8501C14.9443 37.8501 14.9778 37.8166 14.9778 37.7783C14.9778 37.7401 15.0113 37.7066 15.0496 37.7066C15.0879 37.7066 15.1214 37.6731 15.1214 37.6348C15.1214 37.5965 15.1549 37.563 15.1932 37.563C15.2314 37.563 15.2649 37.5199 15.2649 37.4673C15.2649 37.4099 15.3176 37.319 15.3846 37.2568C15.4516 37.1946 15.5042 37.1228 15.5042 37.0893C15.5042 37.0606 15.5377 37.0366 15.576 37.0366C15.6143 37.0366 15.6478 37.0079 15.6478 36.9697C15.6478 36.9314 15.7147 36.8357 15.7913 36.7591C15.8727 36.6778 15.9349 36.5916 15.9349 36.5629C15.9349 36.5342 15.9588 36.5103 15.9827 36.5103C16.0114 36.5103 16.0306 36.4768 16.0306 36.4385C16.0306 36.4002 16.0593 36.3667 16.0976 36.3667C16.1358 36.3667 16.1789 36.2997 16.198 36.2232C16.2172 36.1418 16.2507 36.0796 16.2746 36.0796C16.2985 36.0796 16.3177 36.0461 16.3177 36.0078C16.3177 35.9696 16.3512 35.9361 16.3895 35.9361C16.4517 35.9361 16.4852 35.8499 16.466 35.7303C16.466 35.7112 16.4947 35.6968 16.533 35.6968C16.5713 35.6968 16.6048 35.6633 16.6048 35.625C16.6048 35.5867 16.6383 35.5532 16.6766 35.5532C16.7148 35.5532 16.7483 35.5245 16.7483 35.4863C16.7483 35.448 16.7771 35.4049 16.8105 35.3906C16.8536 35.3666 16.8536 35.3571 16.8105 35.3331C16.7436 35.3044 16.9876 35.0269 17.0785 35.0269C17.1072 35.0269 17.1312 34.9599 17.1312 34.8833C17.1312 34.7876 17.1551 34.7398 17.2029 34.7398C17.246 34.7398 17.2747 34.6967 17.2747 34.6201C17.2747 34.5436 17.3034 34.5005 17.3465 34.5005C17.3848 34.5005 17.4183 34.467 17.4183 34.4287C17.4183 34.3905 17.4422 34.357 17.4661 34.357C17.4948 34.357 17.514 34.29 17.514 34.2134C17.514 34.1225 17.5379 34.0699 17.581 34.0699C17.6192 34.0699 17.6623 34.0172 17.6767 33.9502C17.6958 33.8832 17.7293 33.8306 17.7532 33.8306C17.7819 33.8306 17.8011 33.7971 17.8011 33.7588C17.8011 33.7205 17.8346 33.687 17.8729 33.687C17.9207 33.687 17.9446 33.6392 17.9446 33.5435C17.9446 33.4478 17.9686 33.3999 18.0164 33.3999C18.0547 33.3999 18.0882 33.3664 18.0882 33.3282C18.0882 33.2899 18.1121 33.2564 18.136 33.2564C18.1647 33.2564 18.1839 33.2037 18.1839 33.1367C18.1839 33.0698 18.2174 33.0028 18.2557 32.9884C18.2939 32.9693 18.3274 32.9071 18.3274 32.8449C18.3274 32.7731 18.3562 32.73 18.3992 32.73C18.4375 32.73 18.471 32.6965 18.471 32.6582C18.471 32.6199 18.5045 32.5865 18.5428 32.5865C18.5906 32.5865 18.6145 32.5386 18.6145 32.4429C18.6145 32.3472 18.6385 32.2993 18.6863 32.2993C18.7294 32.2993 18.7581 32.2563 18.7581 32.1845C18.7581 32.1223 18.782 32.0601 18.8107 32.0505C18.8395 32.0409 18.8682 31.974 18.8682 31.9022C18.8729 31.8304 18.9064 31.773 18.9399 31.773C18.9687 31.773 18.9974 31.7203 18.9974 31.6533C18.9974 31.5768 19.0261 31.5337 19.0691 31.5337C19.1074 31.5337 19.1409 31.5002 19.1409 31.4619C19.1409 31.4237 19.1744 31.3902 19.2127 31.3902C19.2605 31.3902 19.2845 31.3423 19.2845 31.2466C19.2845 31.1509 19.3084 31.1031 19.3562 31.1031C19.3993 31.1031 19.428 31.06 19.428 30.9834C19.428 30.9069 19.4567 30.8638 19.4998 30.8638C19.5477 30.8638 19.5716 30.8159 19.5716 30.7202C19.5716 30.6389 19.5955 30.5767 19.6194 30.5767C19.6481 30.5767 19.6673 30.5241 19.6673 30.4571C19.6673 30.3901 19.7008 30.3231 19.7391 30.3087C19.7773 30.2896 19.8108 30.2274 19.8108 30.1652C19.8108 30.0982 19.8396 30.0503 19.8778 30.0503C19.9161 30.0503 19.9592 29.9977 19.9735 29.9307C19.9927 29.8637 20.0262 29.8111 20.0501 29.8111C20.0788 29.8111 20.0979 29.7393 20.1027 29.6532C20.1027 29.5718 20.1171 29.5287 20.1314 29.5575C20.1697 29.6627 20.2415 29.6244 20.2415 29.5C20.2415 29.433 20.2654 29.3804 20.2894 29.3804C20.3181 29.3804 20.3372 29.3134 20.3372 29.2368C20.3372 29.1411 20.3611 29.0933 20.409 29.0933C20.4568 29.0933 20.4808 29.0454 20.4808 28.9497C20.4808 28.854 20.5047 28.8062 20.5525 28.8062C20.5956 28.8062 20.6243 28.7631 20.6243 28.6866C20.6243 28.61 20.653 28.5669 20.6961 28.5669C20.7439 28.5669 20.7679 28.5191 20.7679 28.4234C20.7679 28.3277 20.7918 28.2798 20.8396 28.2798C20.8827 28.2798 20.9114 28.2367 20.9114 28.1602C20.9114 28.0932 20.9354 28.0406 20.9593 28.0406C20.988 28.0406 21.0071 27.9736 21.0071 27.897C21.0071 27.8013 21.0311 27.7534 21.0789 27.7534C21.1268 27.7534 21.1507 27.7056 21.1507 27.6099C21.1507 27.5142 21.1746 27.4663 21.2225 27.4663C21.2655 27.4663 21.2942 27.4233 21.2942 27.3467C21.2942 27.2701 21.3229 27.2271 21.366 27.2271C21.4139 27.2271 21.4378 27.1792 21.4378 27.0835C21.4378 26.9878 21.4617 26.94 21.5096 26.94C21.5957 26.94 21.6053 26.8634 21.5239 26.8299C21.4761 26.8108 21.4761 26.8012 21.5239 26.8012C21.5526 26.7964 21.5813 26.739 21.5813 26.6624C21.5813 26.5619 21.5909 26.5476 21.6292 26.605C21.6675 26.6624 21.677 26.6481 21.677 26.5476C21.677 26.4758 21.7105 26.3897 21.7488 26.3466C21.7871 26.3083 21.8206 26.2222 21.8206 26.1552C21.8206 26.0834 21.8493 26.0308 21.8876 26.0308C21.9259 26.0308 21.9642 25.9494 21.9833 25.8107C22.0264 25.4661 22.0264 25.4566 21.8685 25.4566C21.7919 25.4566 21.7249 25.4326 21.7249 25.4087C21.7249 25.38 21.7584 25.3609 21.7967 25.3609C21.835 25.3609 21.8685 25.3274 21.8685 25.2891C21.8685 25.246 21.8254 25.2173 21.7536 25.2173C21.6914 25.2173 21.6244 25.1838 21.6101 25.1408C21.5909 25.0833 21.6005 25.069 21.6531 25.0929C21.701 25.112 21.7249 25.0881 21.7249 25.0211C21.7249 24.935 21.7058 24.9254 21.6053 24.9493C21.5191 24.9733 21.4856 24.9589 21.4856 24.9063C21.4856 24.868 21.5191 24.8345 21.5574 24.8345C21.6005 24.8345 21.6292 24.7914 21.6292 24.734C21.6292 24.6479 21.6053 24.6335 21.4665 24.6527C21.3517 24.667 21.3134 24.6527 21.3277 24.6096C21.3421 24.5761 21.3804 24.5474 21.4187 24.5474C21.4569 24.5474 21.4856 24.5139 21.4856 24.4708C21.4856 24.4182 21.4569 24.3991 21.3995 24.4134C21.3277 24.4325 21.3134 24.4182 21.3325 24.3177C21.3469 24.2411 21.3277 24.1789 21.2751 24.1407C21.232 24.1072 21.1842 24.0067 21.1746 23.9205C21.165 23.8296 21.1315 23.7531 21.1028 23.7435C21.0789 23.7339 21.055 23.6956 21.055 23.6574C21.055 23.6191 21.0215 23.5904 20.9832 23.5904C20.9306 23.5904 20.9114 23.5329 20.9114 23.3702C20.9114 23.1549 20.9066 23.1501 20.7727 23.1693C20.6722 23.1836 20.6387 23.1741 20.6578 23.1262C20.6722 23.0927 20.7009 23.064 20.7248 23.064C20.7487 23.064 20.7679 23.0305 20.7679 22.9922C20.7679 22.9539 20.7344 22.9204 20.6913 22.9204C20.6339 22.9204 20.6195 22.8869 20.6339 22.7817C20.6482 22.6908 20.6339 22.6525 20.5956 22.6668C20.5669 22.6764 20.5286 22.6238 20.5143 22.5424C20.4903 22.4228 20.4568 22.3941 20.3611 22.3941C20.2319 22.3941 20.1984 22.3223 20.3133 22.2792C20.3516 22.2649 20.3851 22.217 20.3851 22.174C20.3851 22.1165 20.3563 22.1022 20.2654 22.1261C20.1793 22.15 20.1458 22.1357 20.1458 22.083C20.1458 22.04 20.1889 22.0113 20.2559 22.0065C20.3133 22.0065 20.3324 21.9921 20.3037 21.9778C20.2702 21.9682 20.2415 21.9251 20.2415 21.8868C20.2415 21.8486 20.2224 21.8199 20.1984 21.8199C20.1745 21.8199 20.141 21.7624 20.1267 21.6954C20.1075 21.6237 20.0692 21.5806 20.031 21.595C19.9879 21.6141 19.9735 21.5615 19.9831 21.4035C19.9975 21.2217 19.9831 21.1834 19.9065 21.1643C19.8443 21.1499 19.8108 21.0973 19.8108 21.0255C19.8108 20.9633 19.7917 20.9107 19.763 20.9107C19.7391 20.9107 19.7151 20.858 19.7151 20.791C19.7151 20.7241 19.6816 20.6571 19.6434 20.6427C19.6003 20.6236 19.5716 20.5518 19.5716 20.4752C19.5716 20.3604 19.5524 20.3365 19.452 20.3365C19.385 20.3365 19.3323 20.3125 19.3323 20.2886C19.3323 20.2599 19.3562 20.2408 19.3802 20.2408C19.452 20.2408 19.4376 20.1498 19.3562 20.0685C19.318 20.0254 19.2845 20.0159 19.2845 20.0446C19.2845 20.0733 19.2653 20.0972 19.2366 20.0972C19.2127 20.0972 19.1888 20.0637 19.1888 20.0254C19.1888 19.9871 19.2223 19.9536 19.2605 19.9536C19.3706 19.9536 19.3467 19.8675 19.227 19.8484C19.1313 19.834 19.1313 19.8244 19.1983 19.7622C19.251 19.7096 19.2558 19.6713 19.2175 19.633C19.0883 19.4895 19.0452 19.4273 19.0452 19.3555C19.0452 19.3172 19.0117 19.2837 18.9734 19.2837C18.9208 19.2837 18.9017 19.2311 18.9017 19.0923C18.9017 18.9631 18.8825 18.9009 18.8347 18.9009C18.7964 18.9009 18.7677 18.8722 18.7725 18.8387C18.7772 18.6808 18.7533 18.6138 18.6863 18.6138C18.6337 18.6138 18.6193 18.5803 18.6433 18.499C18.6672 18.3985 18.648 18.3793 18.5236 18.3506C18.3705 18.3171 18.3179 18.231 18.4471 18.231C18.4853 18.231 18.5188 18.1975 18.5188 18.1592C18.5188 18.1114 18.471 18.0874 18.3753 18.0874C18.2987 18.0874 18.2317 18.0635 18.2317 18.0396C18.2317 18.0109 18.2652 17.9917 18.3083 17.9917C18.4423 17.9917 18.3609 17.8243 18.2174 17.8099C18.0834 17.7955 18.0308 17.7046 18.16 17.7046C18.1982 17.7046 18.2317 17.6616 18.2317 17.6089C18.2317 17.5371 18.1982 17.5132 18.1121 17.5132C18.0451 17.5132 17.9925 17.4893 17.9925 17.4654C17.9925 17.4367 18.0164 17.4175 18.0403 17.4175C18.1408 17.4175 18.0834 17.3218 17.9686 17.2931C17.8298 17.2596 17.8202 17.2357 17.9303 17.1543C18.0308 17.0778 17.9733 16.9868 17.8202 16.9868C17.758 16.9868 17.7054 16.9629 17.7054 16.939C17.7054 16.9103 17.7389 16.8911 17.7771 16.8911C17.8154 16.8911 17.8489 16.8576 17.8489 16.8194C17.8489 16.7715 17.8011 16.7476 17.7054 16.7476C17.6288 16.7476 17.5618 16.7237 17.5618 16.6997C17.5618 16.671 17.5953 16.6519 17.6336 16.6519C17.6719 16.6519 17.7054 16.6088 17.7054 16.5562C17.7054 16.5035 17.6719 16.4605 17.6336 16.4605C17.5857 16.4605 17.5618 16.4126 17.5618 16.3265C17.5618 16.2117 17.5427 16.1925 17.4326 16.1973C17.3656 16.1973 17.2986 16.1686 17.2891 16.1351C17.2747 16.1064 17.2986 16.0777 17.3417 16.0777C17.3848 16.0777 17.4183 16.0442 17.4183 16.0059C17.4183 15.9676 17.3848 15.9341 17.3417 15.9341C17.2843 15.9341 17.2699 15.9054 17.2938 15.8241C17.3178 15.714 17.1934 15.5513 17.0833 15.5513C17.0259 15.5513 17.0163 15.4269 17.0737 15.3934C17.0929 15.3838 17.0833 15.379 17.0546 15.3886C17.0259 15.3934 16.9732 15.379 16.935 15.3551C16.8775 15.3168 16.8775 15.3025 16.9397 15.2642C17.002 15.2211 17.002 15.2068 16.9302 15.1637C16.8823 15.1398 16.844 15.0824 16.844 15.0489C16.844 15.0106 16.8249 14.9771 16.7962 14.9771C16.7723 14.9771 16.7483 14.9101 16.7483 14.8335C16.7483 14.7522 16.7244 14.69 16.6957 14.69C16.6144 14.69 16.5091 14.5608 16.5091 14.4555C16.5091 14.3885 16.4804 14.355 16.4229 14.355C16.356 14.355 16.3416 14.3167 16.3416 14.1923C16.3464 14.0775 16.332 14.0344 16.2842 14.0535C16.2507 14.0679 16.222 14.044 16.222 14.0009C16.222 13.9578 16.1885 13.9243 16.1502 13.9243C16.1071 13.9243 16.0784 13.8813 16.0784 13.8095C16.0784 13.7473 16.0449 13.6803 16.0019 13.666C15.9588 13.6468 15.9349 13.6037 15.954 13.5655C15.9684 13.5272 15.9588 13.4937 15.9349 13.4937C15.8535 13.4937 15.6956 13.3071 15.6956 13.2066C15.6956 13.0869 15.576 13.0822 15.509 13.1922C15.4851 13.2401 15.4468 13.2592 15.4276 13.2401C15.4037 13.2161 15.4085 13.1874 15.4372 13.1683C15.4659 13.1492 15.4994 13.0965 15.5186 13.0534C15.5377 12.996 15.5281 12.9817 15.4755 13.0008C15.442 13.0152 15.4085 13.0008 15.4085 12.9673C15.4085 12.8764 14.93 12.441 14.8295 12.441C14.7673 12.441 14.7386 12.4075 14.7386 12.3309C14.7386 12.216 14.6189 12.0868 14.4562 12.0342C14.3558 12.0055 14.3223 11.9385 14.394 11.9002C14.4132 11.8907 14.4036 11.8907 14.3701 11.8954C14.3366 11.905 14.2792 11.8811 14.2409 11.8428C14.2026 11.8045 14.15 11.771 14.1261 11.771C14.0974 11.771 14.0639 11.7423 14.0543 11.7088C14.0352 11.661 14.0256 11.661 14.0256 11.7088C14.0208 11.7806 13.9251 11.795 13.9251 11.7232C13.9251 11.6035 13.7528 11.4839 13.5806 11.4839C13.4801 11.4839 13.3987 11.4648 13.3987 11.4409C13.3987 11.4169 13.303 11.3834 13.1834 11.3691C13.0542 11.3451 12.9681 11.3117 12.9681 11.2734C12.9681 11.1729 11.5373 11.192 11.4847 11.2925ZM11.6282 11.3164C11.6282 11.3547 11.6091 11.3882 11.5804 11.3882C11.5564 11.3882 11.5325 11.3547 11.5325 11.3164C11.5325 11.2782 11.5564 11.2447 11.5804 11.2447C11.6091 11.2447 11.6282 11.2782 11.6282 11.3164ZM10.1448 11.9864C10.1448 12.0246 10.1257 12.0581 10.097 12.0581C10.073 12.0581 10.0491 12.0246 10.0491 11.9864C10.0491 11.9481 10.073 11.9146 10.097 11.9146C10.1257 11.9146 10.1448 11.9481 10.1448 11.9864ZM7.75225 14.1397C7.75225 14.178 7.71875 14.2115 7.68047 14.2115C7.64219 14.2115 7.60869 14.178 7.60869 14.1397C7.60869 14.1014 7.64219 14.0679 7.68047 14.0679C7.71875 14.0679 7.75225 14.1014 7.75225 14.1397ZM21.9642 25.6719C21.9642 25.7102 21.945 25.7437 21.9163 25.7437C21.8924 25.7437 21.8685 25.7102 21.8685 25.6719C21.8685 25.6336 21.8924 25.6001 21.9163 25.6001C21.945 25.6001 21.9642 25.6336 21.9642 25.6719Z" fill="#009BE3"/>
<path d="M34.3957 6.42649C34.3335 6.4887 34.2282 6.50784 33.9315 6.50784C33.6205 6.50784 33.5439 6.5222 33.5439 6.57962C33.5439 6.63226 33.4865 6.6514 33.3286 6.6514C33.1707 6.6514 33.1133 6.67054 33.1133 6.72318C33.1133 6.77581 33.0606 6.79495 32.9219 6.79495C32.8166 6.79495 32.7305 6.81409 32.7305 6.8428C32.7305 6.86673 32.697 6.89066 32.6587 6.89066C32.6204 6.89066 32.5869 6.92415 32.5869 6.96243C32.5869 7.0055 32.5438 7.03421 32.4769 7.03421C32.3716 7.03421 32.2041 7.18255 32.2041 7.27347C32.2041 7.30218 32.1419 7.32132 32.0605 7.32132C31.9648 7.32132 31.917 7.34525 31.917 7.3931C31.917 7.43138 31.8835 7.46487 31.8452 7.46487C31.8069 7.46487 31.7734 7.48402 31.7734 7.51273C31.7734 7.53665 31.7399 7.56058 31.7017 7.56058C31.6634 7.56058 31.6299 7.59407 31.6299 7.63235C31.6299 7.67064 31.6107 7.70413 31.582 7.70413C31.5581 7.70413 31.5342 7.73763 31.5342 7.77591C31.5342 7.81419 31.5007 7.84769 31.4624 7.84769C31.4241 7.84769 31.3906 7.88118 31.3906 7.91946C31.3906 7.95774 31.3571 7.99124 31.3188 7.99124C31.2806 7.99124 31.2471 8.02474 31.2471 8.06302C31.2471 8.1013 31.2136 8.1348 31.1753 8.1348C31.137 8.1348 31.1035 8.16829 31.1035 8.20657C31.1035 8.24485 31.0796 8.27835 31.0509 8.27835C30.9839 8.27835 30.8643 8.39798 30.8643 8.46497C30.8643 8.49368 30.8308 8.51761 30.7925 8.51761C30.7542 8.51761 30.7207 8.55111 30.7207 8.58939C30.7207 8.62767 30.6872 8.66116 30.6489 8.66116C30.6106 8.66116 30.5772 8.69466 30.5772 8.73294C30.5772 8.77122 30.5437 8.80472 30.5054 8.80472C30.4623 8.80472 30.4336 8.84779 30.4336 8.92435C30.4336 9.00091 30.4049 9.04398 30.3618 9.04398C30.3235 9.04398 30.29 9.07747 30.29 9.11575C30.29 9.15403 30.2565 9.18753 30.2183 9.18753C30.18 9.18753 30.1465 9.22103 30.1465 9.25931C30.1465 9.29759 30.1273 9.33109 30.0986 9.33109C30.0747 9.33109 30.0508 9.39329 30.0508 9.47464C30.0508 9.57034 30.0269 9.61819 29.979 9.61819C29.9407 9.61819 29.9072 9.63734 29.9072 9.66605C29.9072 9.68997 29.8737 9.7139 29.8355 9.7139C29.7876 9.7139 29.7637 9.76175 29.7637 9.85745C29.7637 9.95316 29.7397 10.001 29.6919 10.001C29.6536 10.001 29.6201 10.0345 29.6201 10.0728C29.6201 10.1111 29.5866 10.1446 29.5483 10.1446C29.5005 10.1446 29.4766 10.1924 29.4766 10.2785C29.4766 10.3599 29.4335 10.4412 29.3569 10.4987C29.2899 10.5513 29.2373 10.6374 29.2373 10.6996C29.2373 10.7714 29.2086 10.8145 29.1655 10.8145C29.1177 10.8145 29.0938 10.8623 29.0938 10.958C29.0938 11.0346 29.0746 11.1016 29.0459 11.1016C28.955 11.1016 28.8066 11.2691 28.8066 11.3743C28.8066 11.4366 28.7875 11.4844 28.7588 11.4844C28.7349 11.4844 28.7109 11.5466 28.7109 11.628C28.7109 11.7237 28.687 11.7715 28.6392 11.7715C28.5961 11.7715 28.5674 11.8146 28.5674 11.8911C28.5674 11.9677 28.5387 12.0108 28.4956 12.0108C28.4478 12.0108 28.4238 12.0586 28.4238 12.1543C28.4238 12.25 28.3999 12.2979 28.3521 12.2979C28.3138 12.2979 28.2803 12.3314 28.2803 12.3697C28.2803 12.4079 28.2611 12.4414 28.2324 12.4414C28.2085 12.4414 28.175 12.4941 28.1559 12.5611C28.1415 12.6281 28.108 12.6807 28.0841 12.6807C28.0602 12.6807 28.041 12.7429 28.041 12.8243C28.041 12.92 28.0171 12.9678 27.9692 12.9678C27.9214 12.9678 27.8975 13.0157 27.8975 13.1114C27.8975 13.2071 27.8735 13.2549 27.8257 13.2549C27.7826 13.2549 27.7539 13.298 27.7539 13.3745C27.7539 13.4511 27.7252 13.4942 27.6821 13.4942C27.6343 13.4942 27.6104 13.542 27.6104 13.6377C27.6104 13.7143 27.5912 13.7813 27.5625 13.7813C27.5386 13.7813 27.5147 13.8148 27.5147 13.8531C27.5147 13.8913 27.4716 13.9631 27.4189 14.0062C27.3663 14.054 27.3232 14.1402 27.3232 14.1976C27.3232 14.2598 27.3041 14.3076 27.2754 14.3076C27.2515 14.3076 27.2275 14.3938 27.2275 14.4991C27.2275 14.6378 27.2084 14.6905 27.1558 14.6905C27.1079 14.6905 27.084 14.7383 27.084 14.834C27.084 14.9297 27.0601 14.9776 27.0122 14.9776C26.9644 14.9776 26.9404 15.0254 26.9404 15.1211C26.9404 15.2168 26.9165 15.2647 26.8687 15.2647C26.8256 15.2647 26.7969 15.3077 26.7969 15.3843C26.7969 15.4609 26.7682 15.5039 26.7251 15.5039C26.6772 15.5039 26.6533 15.5518 26.6533 15.6475C26.6533 15.7241 26.6342 15.791 26.6055 15.791C26.5815 15.791 26.5576 15.8437 26.5576 15.9107C26.5576 15.9872 26.5289 16.0303 26.4858 16.0303C26.438 16.0303 26.4141 16.0782 26.4141 16.1739C26.4141 16.2696 26.3901 16.3174 26.3423 16.3174C26.2944 16.3174 26.2705 16.3653 26.2705 16.461C26.2705 16.5567 26.2466 16.6045 26.1987 16.6045C26.1461 16.6045 26.127 16.6572 26.127 16.7911C26.127 16.9108 26.103 16.9873 26.0552 17.0065C26.0169 17.0208 25.9834 17.0878 25.9834 17.1548C25.9834 17.2218 25.9643 17.2744 25.9355 17.2744C25.9116 17.2744 25.8877 17.3271 25.8877 17.3941C25.8877 17.4706 25.859 17.5137 25.8159 17.5137C25.7681 17.5137 25.7441 17.5616 25.7441 17.6573C25.7441 17.753 25.7202 17.8008 25.6724 17.8008C25.6245 17.8008 25.6006 17.8487 25.6006 17.9444C25.6006 18.0401 25.5767 18.0879 25.5288 18.0879C25.4857 18.0879 25.457 18.131 25.457 18.2028C25.457 18.265 25.4235 18.3272 25.3853 18.3463C25.3374 18.3607 25.3135 18.4372 25.3135 18.5664C25.3135 18.6717 25.2943 18.7578 25.2656 18.7578C25.2417 18.7578 25.2178 18.8105 25.2178 18.8775C25.2178 18.954 25.1891 18.9971 25.146 18.9971C25.0981 18.9971 25.0742 19.045 25.0742 19.1407C25.0742 19.2364 25.0503 19.2842 25.0024 19.2842C24.9546 19.2842 24.9307 19.3321 24.9307 19.4278C24.9307 19.5235 24.9067 19.5713 24.8589 19.5713C24.811 19.5713 24.7871 19.6192 24.7871 19.7149C24.7871 19.8106 24.7632 19.8584 24.7153 19.8584C24.6627 19.8584 24.6436 19.9111 24.6436 20.0498C24.6436 20.1886 24.6244 20.2412 24.5718 20.2412C24.5287 20.2412 24.5 20.2843 24.5 20.3609C24.5 20.4279 24.4809 20.4805 24.4522 20.4805C24.4282 20.4805 24.4043 20.5427 24.4043 20.6241C24.4043 20.7198 24.3804 20.7676 24.3325 20.7676C24.2895 20.7676 24.2607 20.8107 24.2607 20.8825C24.2607 20.9447 24.2272 21.0069 24.189 21.026C24.1411 21.0404 24.1172 21.1169 24.1172 21.2461C24.1172 21.3849 24.098 21.4375 24.0454 21.4375C24.0023 21.4375 23.9736 21.4806 23.9736 21.5524C23.9736 21.6146 23.9401 21.6768 23.9019 21.6959C23.8636 21.7103 23.8301 21.7773 23.8301 21.8443C23.8301 21.9113 23.8109 21.9639 23.7822 21.9639C23.7583 21.9639 23.7344 22.0261 23.7344 22.1075C23.7344 22.2032 23.7105 22.251 23.6626 22.251C23.6147 22.251 23.5908 22.2989 23.5908 22.3946C23.5908 22.4903 23.5669 22.5381 23.519 22.5381C23.4664 22.5381 23.4473 22.5908 23.4473 22.7295C23.4473 22.8683 23.4281 22.9209 23.3755 22.9209C23.3324 22.9209 23.3037 22.964 23.3037 23.0358C23.3037 23.098 23.2702 23.1602 23.2319 23.1793C23.1937 23.1937 23.1602 23.2607 23.1602 23.3277C23.1602 23.3947 23.141 23.4473 23.1123 23.4473C23.0884 23.4473 23.0645 23.5095 23.0645 23.5909C23.0645 23.6866 23.0405 23.7344 22.9927 23.7344C22.9496 23.7344 22.9209 23.7775 22.9209 23.854C22.9209 23.9306 22.8922 23.9737 22.8491 23.9737C22.7965 23.9737 22.7773 24.0311 22.7773 24.189C22.7773 24.3469 22.7582 24.4043 22.7056 24.4043C22.6625 24.4043 22.6338 24.4474 22.6338 24.5192C22.6338 24.5814 22.6003 24.6436 22.562 24.6627C22.5237 24.6771 22.4902 24.7441 22.4902 24.8111C22.4902 24.8781 22.4711 24.9307 22.4424 24.9307C22.4185 24.9307 22.3945 24.9929 22.3945 25.0743C22.3945 25.17 22.3706 25.2178 22.3228 25.2178C22.2797 25.2178 22.251 25.2609 22.251 25.3374C22.251 25.414 22.2223 25.4571 22.1792 25.4571C22.1218 25.4571 22.1074 25.5193 22.1074 25.7442C22.1074 25.9021 22.0883 26.0313 22.0644 26.0313C22.0404 26.0313 22.0069 26.0839 21.9926 26.1509C21.9734 26.2179 21.9399 26.2705 21.916 26.2705C21.8873 26.2705 21.8682 26.3327 21.8682 26.4141C21.8682 26.5098 21.8442 26.5576 21.7964 26.5576C21.7485 26.5576 21.7246 26.6055 21.7246 26.7012C21.7246 26.7969 21.7007 26.8448 21.6528 26.8448C21.6098 26.8448 21.5811 26.8878 21.5811 26.9644C21.5811 27.0314 21.5619 27.084 21.538 27.084C21.5141 27.084 21.4806 27.151 21.4614 27.2276C21.4423 27.3041 21.4088 27.3711 21.3849 27.3711C21.3609 27.3711 21.3418 27.4238 21.3418 27.4908C21.3418 27.5577 21.3083 27.6247 21.27 27.6391C21.2317 27.6582 21.1982 27.7204 21.1982 27.7826C21.1982 27.8544 21.1695 27.8975 21.1265 27.8975C21.0786 27.8975 21.0547 27.9453 21.0547 28.041C21.0547 28.1368 21.0308 28.1846 20.9829 28.1846C20.9351 28.1846 20.9111 28.2325 20.9111 28.3282C20.9111 28.4047 20.892 28.4717 20.8633 28.4717C20.8394 28.4717 20.8059 28.5243 20.7867 28.5913C20.7724 28.6583 20.7389 28.711 20.7197 28.711C20.6958 28.711 20.6671 28.7732 20.648 28.8545C20.6288 28.9311 20.5953 28.9981 20.5714 28.9981C20.5475 28.9981 20.5283 29.0507 20.5283 29.1177C20.5283 29.1943 20.4996 29.2373 20.4565 29.2373C20.4087 29.2373 20.3848 29.2852 20.3848 29.3809C20.3848 29.4766 20.3608 29.5244 20.313 29.5244C20.2651 29.5244 20.2412 29.5723 20.2412 29.668C20.2412 29.7637 20.2173 29.8116 20.1694 29.8116C20.1264 29.8116 20.0977 29.8546 20.0977 29.9312C20.0977 29.9982 20.0785 30.0508 20.0546 30.0508C20.0307 30.0508 19.9972 30.1178 19.978 30.1944C19.9589 30.2757 19.9254 30.3379 19.9015 30.3379C19.8775 30.3379 19.8584 30.3906 19.8584 30.4576C19.8584 30.5341 19.8297 30.5772 19.7866 30.5772C19.7483 30.5772 19.7148 30.6202 19.7148 30.6681C19.7148 30.7207 19.6813 30.7925 19.6431 30.8356C19.6048 30.8739 19.5713 30.9169 19.5713 30.9361C19.5713 30.9552 19.5378 30.9983 19.4995 31.0366C19.4612 31.0796 19.4277 31.1514 19.4277 31.204C19.4277 31.2519 19.4086 31.295 19.3847 31.295C19.3607 31.295 19.3272 31.3476 19.3129 31.4146C19.2938 31.4816 19.265 31.5342 19.2411 31.5342C19.2172 31.5342 19.1837 31.6012 19.1646 31.6778C19.1454 31.7591 19.1119 31.8213 19.088 31.8213C19.0641 31.8213 19.0449 31.874 19.0449 31.941C19.0449 32.0175 19.0162 32.0606 18.9731 32.0606C18.9349 32.0606 18.9014 32.0941 18.9014 32.1324C18.9014 32.1706 18.8822 32.2041 18.8583 32.2041C18.8344 32.2041 18.8009 32.2711 18.7817 32.3477C18.7626 32.429 18.7291 32.4912 18.7052 32.4912C18.6813 32.4912 18.6525 32.5439 18.6334 32.6109C18.619 32.6779 18.5855 32.7305 18.5664 32.7305C18.5425 32.7305 18.5138 32.7975 18.4946 32.8741C18.4755 32.9554 18.442 33.0176 18.4181 33.0176C18.3941 33.0176 18.375 33.0511 18.375 33.0894C18.375 33.1277 18.3415 33.1612 18.3032 33.1612C18.2602 33.1612 18.2314 33.2042 18.2314 33.2808C18.2314 33.3478 18.198 33.4148 18.1597 33.4291C18.1214 33.4483 18.0879 33.5105 18.0879 33.5727C18.0879 33.6445 18.0592 33.6875 18.0161 33.6875C17.9778 33.6875 17.9443 33.721 17.9443 33.7593C17.9443 33.7976 17.9252 33.8311 17.9013 33.8311C17.8773 33.8311 17.8438 33.8837 17.8295 33.9507C17.8104 34.0177 17.7816 34.0703 17.7577 34.0703C17.7338 34.0703 17.7003 34.1373 17.6812 34.2139C17.662 34.2952 17.6285 34.3575 17.6046 34.3575C17.5807 34.3575 17.5615 34.391 17.5615 34.4292C17.5615 34.4675 17.528 34.501 17.4897 34.501C17.4467 34.501 17.418 34.5441 17.418 34.6206C17.418 34.6972 17.3893 34.7403 17.3462 34.7403C17.3079 34.7403 17.2744 34.7833 17.2744 34.836C17.2744 34.8886 17.2553 34.9317 17.2266 34.9317C17.2026 34.9317 17.1691 34.9843 17.15 35.0513C17.1356 35.1183 17.1021 35.1709 17.0782 35.1709C17.0543 35.1709 17.0352 35.2044 17.0352 35.2427C17.0352 35.281 17.0017 35.3145 16.9634 35.3145C16.9203 35.3145 16.8916 35.3576 16.8916 35.4341C16.8916 35.5107 16.8629 35.5537 16.8198 35.5537C16.7815 35.5537 16.748 35.5825 16.748 35.6207C16.748 35.659 16.7146 35.6973 16.6763 35.7164C16.638 35.7308 16.6045 35.7882 16.6045 35.8456C16.6045 35.9031 16.5519 35.9988 16.4849 36.061C16.4179 36.1232 16.3652 36.195 16.3652 36.2237C16.3652 36.2476 16.3317 36.2715 16.2935 36.2715C16.2504 36.2715 16.2217 36.3146 16.2217 36.3911C16.2217 36.4677 16.193 36.5108 16.1499 36.5108C16.1116 36.5108 16.0781 36.5443 16.0781 36.5826C16.0781 36.6208 16.0446 36.6543 16.0063 36.6543C15.9681 36.6543 15.9346 36.6974 15.9346 36.75C15.9346 36.8075 15.8819 36.8984 15.8149 36.9606C15.748 37.0228 15.6953 37.0946 15.6953 37.1281C15.6953 37.1568 15.6618 37.1807 15.6235 37.1807C15.5853 37.1807 15.5518 37.2142 15.5518 37.2525C15.5518 37.2908 15.5183 37.3243 15.48 37.3243C15.4369 37.3243 15.4082 37.3673 15.4082 37.4439C15.4082 37.5204 15.3795 37.5635 15.3364 37.5635C15.2981 37.5635 15.2646 37.5874 15.2646 37.6114C15.2646 37.6401 15.212 37.7118 15.145 37.7741C15.078 37.8363 15.0254 37.908 15.0254 37.9415C15.0254 37.9702 14.9967 37.9942 14.9584 37.9942C14.9201 37.9942 14.8771 38.0468 14.8627 38.1138C14.8436 38.1808 14.8101 38.2334 14.7861 38.2334C14.7574 38.2334 14.7383 38.2669 14.7383 38.3052C14.7383 38.3435 14.7048 38.377 14.6665 38.377C14.6282 38.377 14.5947 38.4105 14.5947 38.4488C14.5947 38.487 14.5612 38.5205 14.523 38.5205C14.4847 38.5205 14.4512 38.5445 14.4512 38.5732C14.4512 38.6019 14.365 38.7119 14.2598 38.8124C14.1545 38.9177 14.0684 39.0182 14.0684 39.0469C14.0684 39.0708 14.0349 39.0948 13.9966 39.0948C13.9583 39.0948 13.9248 39.1139 13.9248 39.1426C13.9248 39.1665 13.8913 39.1905 13.853 39.1905C13.8147 39.1905 13.7813 39.2144 13.7813 39.2431C13.7813 39.2766 13.7286 39.3484 13.6616 39.4106C13.5946 39.4728 13.542 39.5446 13.542 39.5733C13.542 39.5972 13.5181 39.6211 13.4941 39.6211C13.4654 39.6211 13.3937 39.6738 13.3314 39.7408C13.2692 39.8077 13.1975 39.8604 13.164 39.8604C13.1353 39.8604 13.1113 39.8939 13.1113 39.9322C13.1113 39.9704 13.0778 40.0039 13.0396 40.0039C13.0013 40.0039 12.9678 40.0374 12.9678 40.0757C12.9678 40.114 12.9343 40.1475 12.896 40.1475C12.8577 40.1475 12.8242 40.1666 12.8242 40.1953C12.8242 40.2193 12.7716 40.2528 12.7046 40.2719C12.6376 40.2863 12.585 40.3293 12.585 40.3676C12.585 40.4059 12.561 40.4346 12.5323 40.4346C12.4988 40.4346 12.4271 40.4872 12.3648 40.5542C12.3026 40.6212 12.2117 40.6739 12.1543 40.6739C12.1017 40.6739 12.0586 40.7074 12.0586 40.7456C12.0586 40.7839 12.0251 40.8174 11.9868 40.8174C11.9485 40.8174 11.915 40.8509 11.915 40.8892C11.915 40.9275 11.8815 40.961 11.8433 40.961C11.805 40.961 11.7715 40.9801 11.7715 41.004C11.7715 41.028 11.7188 41.0615 11.6519 41.0758C11.5849 41.095 11.5322 41.1237 11.5322 41.1476C11.5322 41.1715 11.4652 41.205 11.3887 41.2242C11.3073 41.2433 11.2451 41.2768 11.2451 41.3007C11.2451 41.3246 11.2116 41.3438 11.1733 41.3438C11.1351 41.3438 11.1016 41.3773 11.1016 41.4156C11.1016 41.4634 11.0537 41.4873 10.958 41.4873C10.8623 41.4873 10.8145 41.5113 10.8145 41.5591C10.8145 41.6022 10.7714 41.6309 10.6996 41.6309C10.6374 41.6309 10.5752 41.6644 10.5561 41.7027C10.5417 41.741 10.4747 41.7744 10.4077 41.7744C10.3407 41.7744 10.2881 41.7936 10.2881 41.8223C10.2881 41.8462 10.202 41.8845 10.0967 41.8989C9.99141 41.918 9.90527 41.9467 9.90527 41.9706C9.90527 41.9946 9.84307 42.0137 9.76172 42.0137C9.66602 42.0137 9.61816 42.0376 9.61816 42.0855C9.61816 42.1429 9.55596 42.1573 9.35498 42.1573C9.154 42.1573 9.0918 42.1716 9.0918 42.229C9.0918 42.2865 9.02959 42.3008 8.82861 42.3008C8.62764 42.3008 8.56543 42.3152 8.56543 42.3726C8.56543 42.43 8.4793 42.4444 8.08691 42.4444C7.7998 42.4444 7.6084 42.4635 7.6084 42.4922C7.6084 42.5257 13.1257 42.5449 23.9497 42.5496C36.9988 42.5592 40.291 42.5496 40.291 42.5018C40.291 42.4587 40.4729 42.4444 41.0327 42.4444C41.6596 42.4444 41.7744 42.4348 41.7744 42.3726C41.7744 42.3152 41.8414 42.3008 42.1094 42.3008C42.3773 42.3008 42.4443 42.2865 42.4443 42.229C42.4443 42.1764 42.497 42.1573 42.6357 42.1573C42.741 42.1573 42.8272 42.1333 42.8272 42.1094C42.8272 42.0807 42.9229 42.0616 43.0425 42.0616C43.2004 42.0616 43.2578 42.0424 43.2578 41.9898C43.2578 41.9371 43.3105 41.918 43.4492 41.918C43.588 41.918 43.6406 41.8989 43.6406 41.8462C43.6406 41.7984 43.6885 41.7744 43.7842 41.7744C43.8799 41.7744 43.9277 41.7505 43.9277 41.7027C43.9277 41.6596 43.9708 41.6309 44.0474 41.6309C44.1239 41.6309 44.167 41.6022 44.167 41.5591C44.167 41.5208 44.2005 41.4873 44.2388 41.4873C44.2771 41.4873 44.3106 41.4634 44.3106 41.4395C44.3106 41.4108 44.3632 41.3916 44.4302 41.3916C44.4972 41.3916 44.5642 41.3581 44.5785 41.3199C44.5977 41.2816 44.6599 41.2481 44.7221 41.2481C44.7939 41.2481 44.8369 41.2194 44.8369 41.1763C44.8369 41.138 44.8704 41.1045 44.9087 41.1045C44.947 41.1045 44.9805 41.071 44.9805 41.0327C44.9805 40.9945 45.014 40.961 45.0522 40.961C45.0905 40.961 45.124 40.9275 45.124 40.8892C45.124 40.8509 45.1575 40.8174 45.1958 40.8174C45.2341 40.8174 45.2676 40.7839 45.2676 40.7456C45.2676 40.7026 45.3106 40.6739 45.3872 40.6739C45.4542 40.6739 45.5068 40.6499 45.5068 40.626C45.5068 40.5973 45.5403 40.5782 45.5786 40.5782C45.6169 40.5782 45.6504 40.5447 45.6504 40.5064C45.6504 40.4681 45.6839 40.4346 45.7222 40.4346C45.7605 40.4346 45.7939 40.4011 45.7939 40.3628C45.7939 40.3245 45.8274 40.291 45.8657 40.291C45.904 40.291 45.9375 40.2576 45.9375 40.2193C45.9375 40.181 45.971 40.1475 46.0093 40.1475C46.0476 40.1475 46.0811 40.114 46.0811 40.0757C46.0811 40.0374 46.1146 40.0039 46.1528 40.0039C46.1959 40.0039 46.2246 39.9609 46.2246 39.8843C46.2246 39.8173 46.2485 39.7647 46.2725 39.7647C46.3012 39.7647 46.3203 39.7312 46.3203 39.6929C46.3203 39.6546 46.3538 39.6211 46.3921 39.6211C46.4304 39.6211 46.4639 39.5876 46.4639 39.5494C46.4639 39.5111 46.4974 39.4776 46.5356 39.4776C46.5739 39.4776 46.6074 39.4441 46.6074 39.4058C46.6074 39.3675 46.6409 39.334 46.6792 39.334C46.7223 39.334 46.751 39.291 46.751 39.2144C46.751 39.1378 46.7797 39.0948 46.8228 39.0948C46.861 39.0948 46.8945 39.0613 46.8945 39.023C46.8945 38.9847 46.9137 38.9512 46.9376 38.9512C46.9615 38.9512 46.995 38.889 47.0142 38.8077C47.0333 38.7311 47.0668 38.6641 47.0907 38.6641C47.1147 38.6641 47.1338 38.6115 47.1338 38.5445C47.1338 38.4679 47.1625 38.4248 47.2056 38.4248C47.2534 38.4248 47.2773 38.377 47.2773 38.2813C47.2773 38.1856 47.3013 38.1377 47.3491 38.1377C47.397 38.1377 47.4209 38.0899 47.4209 37.9942C47.4209 37.8985 47.4448 37.8506 47.4927 37.8506C47.5357 37.8506 47.5645 37.8076 47.5645 37.7358C47.5645 37.6736 47.5884 37.6114 47.6171 37.6018C47.641 37.5922 47.6793 37.4965 47.6937 37.3817C47.708 37.2716 47.7415 37.1807 47.7607 37.1807C47.7846 37.1807 47.8037 37.1281 47.8037 37.0611C47.8037 36.9845 47.8324 36.9414 47.8755 36.9414C47.9281 36.9414 47.9473 36.8792 47.9473 36.683C47.9473 36.4964 47.9664 36.4199 48.019 36.3959C48.0669 36.3816 48.0908 36.305 48.0908 36.1806C48.0908 36.061 48.1147 35.9844 48.1626 35.9653C48.2152 35.9461 48.2344 35.86 48.2344 35.6303C48.2344 35.4054 48.2535 35.3193 48.3062 35.2953C48.3636 35.2762 48.3779 35.1805 48.3779 34.8838C48.3779 34.6589 48.3971 34.501 48.4258 34.501C48.488 34.501 48.4928 30.448 48.4306 30.4241C48.4019 30.4145 48.3731 30.1848 48.3684 29.912C48.354 29.5771 48.3301 29.4048 48.2918 29.3905C48.2535 29.3809 48.2344 29.2421 48.2344 28.9694C48.2344 28.644 48.22 28.5674 48.1626 28.5674C48.1052 28.5674 48.0908 28.5004 48.0908 28.2325C48.0908 27.9645 48.0765 27.8975 48.019 27.8975C47.9616 27.8975 47.9473 27.8305 47.9473 27.5625C47.9473 27.2946 47.9329 27.2276 47.8755 27.2276C47.8181 27.2276 47.8037 27.1606 47.8037 26.8926C47.8037 26.706 47.7846 26.5576 47.7607 26.5576C47.7367 26.5576 47.7032 26.438 47.6841 26.2945C47.6697 26.1509 47.6315 26.0313 47.6075 26.0313C47.5836 26.0313 47.5645 25.9356 47.5645 25.816C47.5645 25.658 47.5453 25.6006 47.4927 25.6006C47.4353 25.6006 47.4209 25.5384 47.4209 25.3374C47.4209 25.1365 47.4065 25.0743 47.3491 25.0743C47.2917 25.0743 47.2773 25.012 47.2773 24.8111C47.2773 24.6101 47.263 24.5479 47.2056 24.5479C47.1529 24.5479 47.1338 24.4905 47.1338 24.3326C47.1338 24.2129 47.1147 24.1172 47.0859 24.1172C47.062 24.1172 47.0381 24.0311 47.0381 23.9258C47.0381 23.787 47.019 23.7344 46.9663 23.7344C46.9137 23.7344 46.8945 23.6818 46.8945 23.543C46.8945 23.4138 46.8706 23.3372 46.8228 23.3229C46.7749 23.3037 46.751 23.2272 46.751 23.1076C46.751 22.9736 46.7318 22.9209 46.6792 22.9209C46.6266 22.9209 46.6074 22.8635 46.6074 22.7056C46.6074 22.5477 46.5883 22.4903 46.5356 22.4903C46.483 22.4903 46.4639 22.4376 46.4639 22.2989C46.4639 22.1601 46.4447 22.1075 46.3921 22.1075C46.3395 22.1075 46.3203 22.0548 46.3203 21.916C46.3203 21.8108 46.3012 21.7246 46.2725 21.7246C46.2485 21.7246 46.2246 21.6385 46.2246 21.5332C46.2246 21.404 46.2007 21.3275 46.1528 21.3131C46.1146 21.294 46.0811 21.2318 46.0811 21.1696C46.0811 21.0978 46.0523 21.0547 46.0093 21.0547C45.9566 21.0547 45.9375 20.9973 45.9375 20.8394C45.9375 20.6815 45.9184 20.6241 45.8657 20.6241C45.8179 20.6241 45.7939 20.5762 45.7939 20.4805C45.7939 20.3848 45.77 20.3369 45.7222 20.3369C45.6695 20.3369 45.6504 20.2843 45.6504 20.1455C45.6504 20.0403 45.6313 19.9541 45.6025 19.9541C45.5786 19.9541 45.5547 19.9015 45.5547 19.8345C45.5547 19.7675 45.5212 19.7005 45.4829 19.6862C45.4351 19.667 45.4111 19.5905 45.4111 19.4708C45.4111 19.3368 45.392 19.2842 45.3394 19.2842C45.2915 19.2842 45.2676 19.2364 45.2676 19.1407C45.2676 19.045 45.2437 18.9971 45.1958 18.9971C45.1527 18.9971 45.124 18.954 45.124 18.8775C45.124 18.8009 45.0953 18.7578 45.0522 18.7578C44.9996 18.7578 44.9805 18.7052 44.9805 18.5664C44.9805 18.4612 44.9613 18.375 44.9326 18.375C44.9087 18.375 44.8848 18.308 44.8848 18.2315C44.8848 18.1358 44.8608 18.0879 44.813 18.0879C44.7651 18.0879 44.7412 18.0401 44.7412 17.9444C44.7412 17.8487 44.7173 17.8008 44.6694 17.8008C44.6264 17.8008 44.5977 17.7577 44.5977 17.6812C44.5977 17.6142 44.5642 17.5472 44.5259 17.5328C44.4876 17.5137 44.4541 17.4515 44.4541 17.3893C44.4541 17.3175 44.4254 17.2744 44.3823 17.2744C44.3297 17.2744 44.3106 17.2218 44.3106 17.0687C44.3106 16.9443 44.2962 16.8916 44.2675 16.9299C44.2436 16.973 44.2196 16.9299 44.1957 16.8007C44.1814 16.6907 44.1479 16.6045 44.1239 16.6045C44.1 16.6045 44.0665 16.5375 44.0474 16.461C44.0282 16.3796 43.9947 16.3174 43.9708 16.3174C43.9469 16.3174 43.9277 16.2648 43.9277 16.1978C43.9277 16.1212 43.899 16.0782 43.856 16.0782C43.8177 16.0782 43.7842 16.0447 43.7842 16.0064C43.7842 15.9681 43.7507 15.9346 43.7124 15.9346C43.6646 15.9346 43.6406 15.8868 43.6406 15.791C43.6406 15.6953 43.6167 15.6475 43.5689 15.6475C43.521 15.6475 43.4971 15.5996 43.4971 15.5039C43.4971 15.4226 43.4779 15.3604 43.4492 15.3604C43.4253 15.3604 43.4014 15.3077 43.4014 15.2408C43.4014 15.1642 43.3727 15.1211 43.3296 15.1211C43.2817 15.1211 43.2578 15.0733 43.2578 14.9776C43.2578 14.8819 43.2339 14.834 43.186 14.834C43.143 14.834 43.1143 14.7909 43.1143 14.7144C43.1143 14.6378 43.0856 14.5948 43.0425 14.5948C42.9946 14.5948 42.9707 14.5469 42.9707 14.4512C42.9707 14.3555 42.9468 14.3076 42.8989 14.3076C42.8606 14.3076 42.8272 14.2742 42.8272 14.2359C42.8272 14.1976 42.808 14.1641 42.7793 14.1641C42.7554 14.1641 42.7314 14.1115 42.7314 14.0445C42.7314 13.9679 42.7027 13.9248 42.6597 13.9248C42.6118 13.9248 42.5879 13.877 42.5879 13.7813C42.5879 13.6856 42.564 13.6377 42.5161 13.6377C42.4778 13.6377 42.4443 13.6042 42.4443 13.566C42.4443 13.5277 42.4108 13.4942 42.3726 13.4942C42.3295 13.4942 42.3008 13.4511 42.3008 13.3745C42.3008 13.3076 42.2673 13.2406 42.229 13.2262C42.1907 13.2071 42.1572 13.1544 42.1572 13.1018C42.1572 13.0444 42.1046 12.9534 42.0376 12.8912C41.9706 12.829 41.918 12.7429 41.918 12.6951C41.918 12.6041 41.7648 12.4414 41.6787 12.4414C41.65 12.4414 41.6309 12.3744 41.6309 12.2979C41.6309 12.2022 41.6069 12.1543 41.5591 12.1543C41.5208 12.1543 41.4873 12.1208 41.4873 12.0826C41.4873 12.0443 41.4682 12.0108 41.4395 12.0108C41.4155 12.0108 41.3916 11.9581 41.3916 11.8911C41.3916 11.8146 41.3629 11.7715 41.3198 11.7715C41.2815 11.7715 41.2481 11.738 41.2481 11.6997C41.2481 11.6615 41.2146 11.628 41.1763 11.628C41.1284 11.628 41.1045 11.5801 41.1045 11.4844C41.1045 11.3887 41.0806 11.3409 41.0327 11.3409C40.9944 11.3409 40.9609 11.3074 40.9609 11.2691C40.9609 11.2308 40.9274 11.1973 40.8892 11.1973C40.8461 11.1973 40.8174 11.1542 40.8174 11.0777C40.8174 11.0011 40.7887 10.958 40.7456 10.958C40.7073 10.958 40.6738 10.9245 40.6738 10.8863C40.6738 10.848 40.6547 10.8145 40.626 10.8145C40.6021 10.8145 40.5781 10.781 40.5781 10.7427C40.5781 10.7044 40.5446 10.6709 40.5064 10.6709C40.4681 10.6709 40.4346 10.6374 40.4346 10.5992C40.4346 10.5609 40.4011 10.5274 40.3628 10.5274C40.3197 10.5274 40.291 10.4843 40.291 10.4077C40.291 10.3312 40.2623 10.2881 40.2192 10.2881C40.181 10.2881 40.1475 10.2546 40.1475 10.2163C40.1475 10.1781 40.114 10.1446 40.0757 10.1446C40.0374 10.1446 40.0039 10.1206 40.0039 10.0919C40.0039 10.0584 39.9513 9.98665 39.8843 9.92445C39.8173 9.86224 39.7647 9.77132 39.7647 9.7139C39.7647 9.66126 39.7312 9.61819 39.6929 9.61819C39.6546 9.61819 39.6211 9.5847 39.6211 9.54642C39.6211 9.50814 39.5876 9.47464 39.5493 9.47464C39.511 9.47464 39.4775 9.44114 39.4775 9.40286C39.4775 9.36458 39.444 9.33109 39.4058 9.33109C39.3675 9.33109 39.334 9.29759 39.334 9.25931C39.334 9.22103 39.3148 9.18753 39.2861 9.18753C39.2622 9.18753 39.2383 9.15403 39.2383 9.11575C39.2383 9.07747 39.2048 9.04398 39.1665 9.04398C39.1282 9.04398 39.0947 9.02005 39.0947 8.99612C39.0947 8.96741 39.0612 8.94827 39.023 8.94827C38.9847 8.94827 38.9512 8.91478 38.9512 8.8765C38.9512 8.83821 38.9177 8.80472 38.8794 8.80472C38.8411 8.80472 38.8076 8.77122 38.8076 8.73294C38.8076 8.69466 38.7741 8.66116 38.7358 8.66116C38.6976 8.66116 38.6641 8.62767 38.6641 8.58939C38.6641 8.55111 38.6306 8.51761 38.5875 8.51761C38.5397 8.51761 38.5205 8.4889 38.5397 8.44583C38.554 8.40277 38.5397 8.37405 38.4966 8.37405C38.4583 8.37405 38.4248 8.35013 38.4248 8.3262C38.4248 8.29749 38.3913 8.27835 38.353 8.27835C38.3147 8.27835 38.2813 8.24485 38.2813 8.20657C38.2813 8.16829 38.2478 8.1348 38.2095 8.1348C38.1712 8.1348 38.1377 8.1013 38.1377 8.06302C38.1377 8.02474 38.1042 7.99124 38.0659 7.99124C38.0276 7.99124 37.9941 7.95774 37.9941 7.91946C37.9941 7.88118 37.9511 7.84769 37.8984 7.84769C37.8458 7.84769 37.7214 7.76155 37.6161 7.65628C37.4917 7.52708 37.3912 7.46487 37.3051 7.46487C37.2285 7.46487 37.1807 7.44095 37.1807 7.3931C37.1807 7.35482 37.1472 7.32132 37.1089 7.32132C37.0706 7.32132 37.0371 7.28782 37.0371 7.24954C37.0371 7.20647 36.994 7.17776 36.9175 7.17776C36.8409 7.17776 36.7979 7.14906 36.7979 7.10599C36.7979 7.05814 36.75 7.03421 36.6543 7.03421C36.5777 7.03421 36.5107 7.01507 36.5107 6.99114C36.5107 6.96722 36.4581 6.93372 36.3911 6.91936C36.3241 6.90023 36.2715 6.86673 36.2715 6.8428C36.2715 6.81409 36.1758 6.79495 36.0562 6.79495C35.8982 6.79495 35.8408 6.77581 35.8408 6.72318C35.8408 6.67054 35.7882 6.6514 35.6494 6.6514C35.5106 6.6514 35.458 6.63226 35.458 6.57962C35.458 6.5222 35.3719 6.50784 34.9843 6.50784C34.5775 6.50784 34.5058 6.49827 34.4914 6.42649C34.4771 6.34993 34.4723 6.34993 34.3957 6.42649Z" fill="#009BE3"/>
</svg>
