<svg width="58" height="58" viewBox="0 0 58 58" fill="none" xmlns="http://www.w3.org/2000/svg">
<path fill-rule="evenodd" clip-rule="evenodd" d="M13.4979 0.0420494C10.0662 0.15905 7.62739 0.844479 5.45849 2.30137C2.68986 4.16111 0.77328 7.14158 0.227815 10.4355C0.183698 10.7021 0.121285 11.0401 0.0891071 11.1867C0.0449418 11.3883 0.0273727 13.7339 0.0172293 20.8022C0.00436799 29.7206 0.00766825 30.1479 0.0892041 30.0837C0.136184 30.0467 0.309497 29.9073 0.474315 29.774C1.47536 28.9646 2.70515 28.469 4.15032 28.2922C4.97403 28.1916 6.06544 28.3196 6.94593 28.6201C8.14548 29.0296 9.50849 30.0265 10.2676 31.0496C10.5587 31.4418 10.6388 31.5719 10.9152 32.1005C11.6548 33.5151 11.8409 35.2287 11.4332 36.8676C11.3644 37.1437 11.2894 37.4055 11.2664 37.4492C11.2435 37.493 11.1768 37.6539 11.1184 37.8066C10.6819 38.9483 9.61507 40.1935 8.41586 40.9611C7.72407 41.404 6.91701 41.7238 6.04807 41.8996C5.52978 42.0044 4.27277 42.0143 3.69421 41.9182C2.33362 41.6921 1.27405 41.2013 0.336044 40.3627L0 40.0622L0.0173749 43.303C0.0290714 45.4883 0.0528527 46.6306 0.0903689 46.8104C0.120993 46.957 0.181951 47.2842 0.225825 47.5374C0.752654 50.5784 2.30635 53.2192 4.68914 55.1239C6.24701 56.3692 8.37529 57.3061 10.3918 57.6342C12.5998 57.9936 11.6017 57.9727 27.5825 57.9932C44.8292 58.0153 45.3253 58.0058 47.5197 57.6132C48.8773 57.3703 49.624 57.1298 50.9126 56.5206C52.7449 55.6544 54.4066 54.2232 55.6469 52.4428C56.4064 51.3526 57.1181 49.7555 57.4224 48.4583C57.4755 48.2317 57.5399 47.9591 57.5653 47.8525C57.6099 47.6658 57.7024 47.0585 57.8079 46.2606C57.9645 45.0751 57.9786 44.1552 57.9786 35.1818V26.1947L57.5661 26.0154C57.3392 25.9169 56.7277 25.6562 56.2072 25.4362C55.6867 25.2162 55.0205 24.9324 54.7269 24.8055C54.4333 24.6787 53.6143 24.3299 52.9069 24.0304C51.787 23.5562 50.366 22.95 50.0677 22.8193C49.6476 22.6351 49.5079 22.5885 49.4854 22.6249C49.4712 22.648 49.4901 22.7393 49.5276 22.8277C49.565 22.9162 49.6428 23.174 49.7004 23.4006C49.758 23.6271 49.8394 23.9325 49.8815 24.0791C49.9234 24.2257 49.9754 24.422 49.9969 24.5153C50.0373 24.6906 50.3252 25.7523 50.6706 26.9991C50.9678 28.0723 50.9481 28.4011 50.5503 28.9995C50.289 29.3926 49.8871 29.6069 49.3494 29.6398C48.8344 29.6713 48.6114 29.6072 48.2361 29.32C47.8728 29.042 47.7163 28.7618 47.518 28.034C47.4447 27.7648 47.3041 27.2501 47.2056 26.8902C46.9328 25.8934 46.8383 25.5463 46.7173 25.0969C46.6563 24.8703 46.5362 24.4341 46.4504 24.1276C46.3646 23.821 46.277 23.4939 46.2558 23.4006C46.2345 23.3073 46.1818 23.111 46.1387 22.9644C46.0165 22.5484 45.8293 21.8676 45.7049 21.3862C45.6424 21.1447 45.5664 20.8721 45.5358 20.7804C45.5053 20.6887 45.3917 20.2756 45.2833 19.8624C45.1749 19.4492 45.0682 19.0567 45.0461 18.99C45.024 18.9234 44.9351 18.6127 44.8486 18.2998L44.6914 17.7307L44.8195 17.5373C44.9511 17.3388 45.1085 17.2635 45.3002 17.3076C45.3598 17.3212 45.6379 17.4301 45.9181 17.5496C46.1984 17.6689 46.6352 17.8542 46.8888 17.9613C47.1424 18.0683 47.7102 18.3124 48.1507 18.5036C48.5911 18.6948 49.0216 18.8724 49.1074 18.8982C49.1932 18.924 49.2764 18.9661 49.2923 18.9918C49.3082 19.0175 49.3537 19.0385 49.3935 19.0385C49.4332 19.0385 49.5575 19.0834 49.6697 19.1383C49.7818 19.1931 50.1108 19.3363 50.4008 19.4564C50.6907 19.5764 51.2039 19.7947 51.5413 19.9415C51.8787 20.0883 52.3403 20.2855 52.5672 20.3796C52.7941 20.4737 53.1217 20.6133 53.2952 20.6897C53.4687 20.7661 53.8509 20.9302 54.1445 21.0543C55.069 21.445 55.1133 21.4642 55.1994 21.512C55.3853 21.6152 55.4261 21.5356 55.3352 21.2472C55.3094 21.1653 55.2558 20.9784 55.2163 20.8318C55.1209 20.4781 54.8653 19.5515 54.7217 19.0385C54.6582 18.8119 54.5057 18.2557 54.3827 17.8026C54.2597 17.3494 54.1264 16.8586 54.0864 16.712C53.9868 16.3474 53.99 16.0187 54.0965 15.6493C54.1721 15.3875 54.2344 15.289 54.4876 15.031C54.8602 14.6516 55.135 14.5217 55.6248 14.4938C56.103 14.4665 56.4455 14.5909 56.8115 14.925C57.0625 15.1541 57.3234 15.5826 57.3234 15.7656C57.3234 15.8082 57.4028 16.1094 57.4997 16.435C57.5966 16.7606 57.6934 17.1143 57.7148 17.2209C57.7363 17.3276 57.8092 17.5784 57.8769 17.7783L58 18.1418L57.9802 15.7912C57.9572 13.0484 57.908 12.2571 57.6609 10.6536C56.9809 6.24081 54.0354 2.5848 49.8979 1.01794C48.2602 0.397753 46.6614 0.126674 44.1224 0.0387536C42.5729 -0.0149 15.0809 -0.0119435 13.4979 0.0420494ZM37.5243 19.8165C38.4285 19.887 39.4132 20.0891 40.0896 20.3427C41.3917 20.8309 42.0521 21.2382 42.8866 22.0677C43.9971 23.1716 44.5304 24.7246 44.3346 26.2844C44.2409 27.0307 43.9392 27.9843 43.637 28.4897C42.7551 29.9642 41.6722 31.063 40.1556 32.0222C39.8006 32.2468 38.9002 32.7008 38.5168 32.8485C38.3033 32.9308 38.091 33.0194 38.0452 33.0455C37.8583 33.1518 37.0685 33.3981 36.4299 33.5492C35.0298 33.8807 34.9103 33.894 33.3723 33.8914C32.0484 33.8892 31.9288 33.8815 31.3582 33.7627C29.9063 33.4604 29.1311 33.1491 27.9358 32.3882C27.6398 32.1997 26.8295 31.3988 26.5232 30.9919C25.9069 30.1731 25.5829 29.1495 25.5828 28.0207C25.5826 26.3547 26.374 24.686 27.8462 23.2483C28.1095 22.9912 28.4296 22.6916 28.5577 22.5823C28.8991 22.2913 29.6743 21.7552 30.128 21.4964C30.5718 21.2434 31.5607 20.7654 31.7464 20.7142C31.8578 20.6835 32.1121 20.5891 32.3531 20.4891C33.005 20.2184 34.5353 19.9086 35.7747 19.7964C36.1718 19.7605 36.9161 19.769 37.5243 19.8165ZM35.3379 23.1286C33.8317 23.355 32.4656 23.8463 31.3771 24.553C30.3862 25.1964 29.7553 25.8213 29.2847 26.6253C28.4671 28.0224 28.8025 29.2124 30.222 29.9504C31.2046 30.4613 32.0953 30.6495 33.4936 30.6418C34.1969 30.6378 34.4557 30.6152 34.9982 30.5102C35.685 30.3772 36.5301 30.1627 36.6198 30.0985C36.6488 30.0778 36.7599 30.032 36.8667 29.9969C37.2258 29.8786 38.1252 29.429 38.549 29.1559C39.7903 28.3561 40.6235 27.4113 40.9959 26.3813C41.0604 26.2031 41.0822 26.0106 41.0783 25.6543C41.0736 25.2409 41.0551 25.134 40.9516 24.9273C40.5502 24.1252 39.7582 23.6032 38.4067 23.2496C37.8722 23.1098 37.7735 23.0996 36.7939 23.0836C36.1079 23.0724 35.6091 23.0878 35.3379 23.1286ZM23.1867 23.5252C23.2937 23.6385 23.3502 23.7461 23.3502 23.8368C23.3502 23.9129 23.2424 24.244 23.1107 24.5724C22.9789 24.9009 22.7258 25.5404 22.5481 25.9936C21.935 27.5576 21.8822 27.6907 21.7975 27.8838C21.7508 27.9904 21.6643 28.2085 21.6054 28.3685C21.5465 28.5284 21.334 29.0737 21.1331 29.5802C20.7985 30.4237 20.0404 32.3482 19.8825 32.7548C19.5366 33.6452 19.3355 34.1393 19.2446 34.3218C19.0905 34.6314 19.1491 34.6506 19.7274 34.48C19.9448 34.4159 20.4612 34.2741 20.875 34.165C21.2887 34.0558 21.7364 33.9348 21.8699 33.8961C22.0034 33.8574 22.331 33.7671 22.5979 33.6956C22.8648 33.624 23.2907 33.506 23.5443 33.4332C23.7979 33.3605 24.0953 33.2762 24.2051 33.246C24.5027 33.1641 25.1329 33.1816 25.3782 33.2784C25.6267 33.3766 25.9694 33.643 26.111 33.8481C26.322 34.1537 26.4213 34.7326 26.335 35.1539C26.2738 35.4528 25.9608 35.9068 25.6941 36.0839C25.3327 36.3238 25.1553 36.3848 23.6171 36.7975C22.5345 37.0879 21.8252 37.2815 21.2632 37.4398C20.9296 37.5338 20.46 37.6633 20.2198 37.7277C19.9795 37.792 19.5427 37.91 19.2491 37.9899C18.9555 38.0698 18.5187 38.1881 18.2784 38.2526C17.7094 38.4056 17.237 38.5349 16.5798 38.7178C15.8837 38.9114 15.2121 39.0936 14.7635 39.2104C14.4095 39.3026 14.4009 39.3026 14.2781 39.2123C14.2094 39.1618 14.1102 39.0421 14.0577 38.9464C13.9669 38.7808 13.9661 38.7611 14.0409 38.5383C14.1237 38.2921 14.801 36.6085 14.9588 36.2571C15.0095 36.1441 15.051 36.0383 15.051 36.0221C15.051 36.0059 15.0812 35.9238 15.1182 35.8398C15.1551 35.7558 15.2577 35.5126 15.3463 35.2994C15.4348 35.0861 15.5247 34.8909 15.5461 34.8656C15.5674 34.8403 15.5849 34.783 15.5849 34.7383C15.5849 34.6936 15.6413 34.529 15.7103 34.3724C15.9319 33.8695 15.9589 33.8058 16.1863 33.2531C16.3093 32.954 16.4099 32.6975 16.4099 32.6831C16.4099 32.6686 16.4516 32.5644 16.5026 32.4513C16.5536 32.3384 16.6532 32.0932 16.7239 31.9066C16.7945 31.72 16.8834 31.5019 16.9213 31.4219C16.9591 31.342 17.1116 30.9712 17.2601 30.598C17.4086 30.2248 17.5492 29.8758 17.5726 29.8225C17.6178 29.7192 18.1007 28.5247 18.205 28.2579C18.2392 28.1704 18.2527 28.0843 18.2349 28.0665C18.2033 28.0349 17.9925 28.0802 17.5019 28.2239C17.3685 28.2629 16.6477 28.4609 15.9003 28.6638C15.1529 28.8667 14.4213 29.0667 14.2745 29.1082C14.1276 29.1498 13.8219 29.1849 13.595 29.1863C13.2332 29.1886 13.1476 29.1714 12.8988 29.0473C12.5281 28.8622 12.257 28.5941 12.0978 28.2548C11.9218 27.88 11.9132 27.2701 12.0792 26.9337C12.3317 26.4221 12.8274 26.0806 13.6568 25.8471C13.9031 25.7778 14.2902 25.6686 14.5171 25.6044C15.0827 25.4445 15.3854 25.3614 15.9246 25.2181C16.1782 25.1507 16.4949 25.0649 16.6283 25.0275C16.7618 24.99 17.1658 24.8799 17.5262 24.7828C17.8865 24.6857 18.2906 24.5756 18.424 24.5381C19.1671 24.3294 19.6142 24.2066 20.2683 24.0315C21.5069 23.7 21.5753 23.6815 21.7 23.6443C21.8497 23.5997 22.2968 23.4721 22.5251 23.409C22.8689 23.3139 23.0106 23.3388 23.1867 23.5252ZM4.30087 31.5483C2.98271 31.8034 2.05868 32.5066 1.49793 33.6813C1.03153 34.6584 1.11792 36.0506 1.70522 37.0214C2.00345 37.5144 2.60929 38.0688 3.12418 38.32C3.6778 38.5901 4.00914 38.6737 4.6406 38.7024C5.07454 38.7221 5.25382 38.7078 5.59836 38.6256C6.28326 38.4624 6.71579 38.2155 7.30202 37.6533C7.80225 37.1735 8.06118 36.743 8.28725 36.015C8.40319 35.6418 8.40805 34.5421 8.29535 34.182C8.09287 33.535 7.75615 32.9519 7.34978 32.5445C7.11269 32.3068 6.43857 31.8339 6.33684 31.8339C6.30631 31.8339 6.2109 31.7988 6.12475 31.7559C5.71906 31.5538 4.80824 31.4501 4.30087 31.5483Z" fill="#009BE3"/>
</svg>
