<svg width="59" height="59" viewBox="0 0 59 59" fill="none" xmlns="http://www.w3.org/2000/svg">
<path fill-rule="evenodd" clip-rule="evenodd" d="M12.2602 0.0151927C10.9962 0.128122 9.52188 0.46947 8.43161 0.901601C4.46683 2.47297 1.46293 5.8609 0.417775 9.94005C-0.0348183 11.7065 0.000651236 10.0468 0.000651236 29.4425C0.000651236 47.8493 -0.0110132 47.0416 0.275183 48.4599C1.28713 53.4754 5.35047 57.5796 10.4101 58.6969C11.8402 59.0127 10.9908 58.9993 29.5784 58.9993C48.9514 58.9993 47.2762 59.0356 49.0638 58.5773C53.6974 57.3894 57.4173 53.6447 58.5853 48.9922C59.0073 47.3114 58.9728 48.9211 58.9947 29.9485C59.0088 17.7762 58.9955 12.6493 58.9485 12.1191C58.7166 9.50512 57.7035 6.99728 56.0504 4.94568C54.2518 2.71341 51.7066 1.07853 48.9578 0.389639C47.307 -0.0240973 48.9529 0.00929922 29.7867 0.00120308C20.2781 -0.00278546 12.3912 0.00346524 12.2602 0.0151927ZM11.38 19.8547C11.4587 19.928 11.5199 20.0843 11.5469 20.2805C11.5703 20.4511 11.6302 20.687 11.6798 20.8048C11.7295 20.9225 11.805 21.1662 11.8476 21.3463C11.9375 21.7268 12.0781 22.2621 12.1994 22.6858C12.2462 22.8495 12.3533 23.2513 12.4371 23.5787C12.6014 24.2199 12.7678 24.8381 12.9419 25.4539C13.2555 26.563 13.3218 26.8166 13.3651 27.0721C13.391 27.2255 13.4426 27.4075 13.4795 27.4766C13.5164 27.5456 13.5837 27.7818 13.629 28.0014C13.6743 28.221 13.75 28.5212 13.7973 28.6686C14.0325 29.4015 14.1365 29.7826 14.1357 29.9076C14.1353 29.9833 14.1871 30.211 14.2509 30.4136C14.3148 30.6162 14.4243 30.9962 14.4942 31.2581C14.5642 31.5201 14.6861 31.9386 14.765 32.1881C14.844 32.4376 14.9085 32.7005 14.9085 32.7722C14.9085 32.844 14.961 33.0685 15.0251 33.271C15.0893 33.4736 15.203 33.8762 15.2779 34.1655C15.4987 35.0193 15.5288 35.0092 15.7762 33.9991C15.8648 33.6375 15.9711 33.2744 16.0123 33.1921C16.0535 33.1098 16.1067 32.9089 16.1305 32.7456C16.1543 32.5823 16.2069 32.3818 16.2475 32.2999C16.288 32.2181 16.3941 31.8832 16.4833 31.5558C16.6408 30.9772 16.7535 30.594 16.9645 29.9187C17.0208 29.7386 17.114 29.4038 17.1716 29.1746C17.2292 28.9454 17.3051 28.6775 17.34 28.5793C17.375 28.481 17.4614 28.1998 17.532 27.9542C17.6027 27.7086 17.7203 27.3068 17.7934 27.0612C17.8665 26.8157 17.9855 26.4005 18.0579 26.1385C18.1303 25.8766 18.2404 25.4882 18.3025 25.2753C18.3646 25.0625 18.4851 24.6473 18.5702 24.3526C18.6554 24.0579 18.7769 23.6738 18.8402 23.499C18.9036 23.3242 18.9556 23.1099 18.9558 23.0228C18.956 22.9356 18.9966 22.7867 19.0461 22.6918C19.0955 22.5969 19.1749 22.3328 19.2224 22.1048C19.2699 21.8769 19.3334 21.6598 19.3634 21.6225C19.3935 21.5852 19.4373 21.4377 19.4609 21.2948C19.4845 21.1518 19.5518 20.9241 19.6105 20.7888C19.6692 20.6534 19.7364 20.4245 19.7598 20.2801C19.7843 20.1285 19.8611 19.9587 19.9415 19.8783C20.0793 19.7404 20.094 19.739 21.4456 19.739C23.0414 19.739 23.0183 19.7313 23.1478 20.3045C23.1922 20.501 23.2693 20.7823 23.3192 20.9296C23.4126 21.2055 23.5402 21.6358 23.8048 22.5667C23.8886 22.8614 24.01 23.2833 24.0748 23.5043C24.2881 24.2325 24.4241 24.7041 24.5426 25.1265C24.6069 25.3557 24.7286 25.7709 24.8131 26.0492C24.8976 26.3275 24.9666 26.603 24.9664 26.6613C24.9663 26.7197 25.0091 26.867 25.0616 26.9887C25.1599 27.2167 25.2486 27.5202 25.4135 28.1923C25.4657 28.4051 25.5471 28.6552 25.5944 28.748C25.6417 28.8407 25.6961 29.0282 25.7151 29.1647C25.7341 29.3011 25.801 29.5382 25.8638 29.6916C25.9265 29.845 25.9779 30.0225 25.9779 30.0861C25.9779 30.1497 26.0618 30.4662 26.1644 30.7895C26.267 31.1127 26.4124 31.5915 26.4875 31.8534C26.5626 32.1154 26.68 32.5172 26.7484 32.7464C26.8773 33.1788 27.0245 33.7063 27.2104 34.4019C27.27 34.6248 27.3451 34.8123 27.3774 34.8186C27.4096 34.8248 27.4775 34.6692 27.5284 34.4728C27.5792 34.2763 27.6383 34.0754 27.6598 34.0263C27.6812 33.9772 27.7248 33.8031 27.7567 33.6394C27.7886 33.4756 27.8534 33.2212 27.9008 33.0738C27.9482 32.9265 28.0171 32.6854 28.054 32.538C28.2461 31.7713 28.3129 31.5236 28.4199 31.1825C28.4842 30.9772 28.5369 30.7451 28.5369 30.6669C28.5369 30.5886 28.5877 30.3816 28.6497 30.2068C28.7118 30.032 28.8353 29.6077 28.9242 29.2639C29.013 28.9201 29.1329 28.4915 29.1905 28.3114C29.2884 28.0056 29.3912 27.6149 29.5821 26.8231C29.6255 26.643 29.7141 26.3082 29.7791 26.079C29.9575 25.4487 30.1956 24.5638 30.2677 24.2633C30.303 24.116 30.3591 23.9151 30.3922 23.8168C30.4254 23.7186 30.4906 23.4641 30.5371 23.2513C30.5835 23.0385 30.6611 22.7438 30.7094 22.5965C30.7962 22.3318 30.8758 22.0399 31.0985 21.1677C31.3627 20.1333 31.4418 19.8944 31.5452 19.8188C31.6298 19.7569 32.0033 19.739 33.2086 19.739C34.9842 19.739 35.0421 19.7514 34.8921 20.1009C34.844 20.2129 34.7623 20.4653 34.7106 20.6617C34.5242 21.3701 34.4726 21.5608 34.364 21.9416C34.3033 22.1544 34.1981 22.5295 34.1301 22.7751C34.0622 23.0206 33.9398 23.4626 33.8582 23.7573C33.7767 24.052 33.6656 24.427 33.6114 24.5907C33.5573 24.7544 33.4937 24.9955 33.4701 25.1265C33.4466 25.2575 33.3866 25.4852 33.337 25.6325C33.2065 26.0199 32.9708 26.8343 32.82 27.4184C32.7482 27.6967 32.6389 28.0675 32.5771 28.2423C32.5153 28.417 32.4647 28.6255 32.4647 28.7055C32.4647 28.7855 32.4214 28.9506 32.3685 29.0723C32.3154 29.194 32.2371 29.441 32.1944 29.621C32.1516 29.8011 32.0762 30.069 32.0268 30.2164C31.9774 30.3637 31.9069 30.6048 31.8701 30.7521C31.6714 31.5477 31.5809 31.8852 31.4871 32.1809C31.43 32.3609 31.332 32.669 31.2693 32.8655C31.2067 33.0619 31.1555 33.2693 31.1555 33.3263C31.1555 33.3833 31.0913 33.6244 31.0129 33.8621C30.9344 34.0998 30.8107 34.5219 30.738 34.8002C30.6101 35.2895 30.5235 35.5895 30.2737 36.4075C30.2087 36.6203 30.1393 36.8748 30.1195 36.9731C30.087 37.1336 29.9478 37.6187 29.7693 38.1934C29.7337 38.308 29.6628 38.5999 29.6117 38.842C29.4675 39.5258 29.5561 39.498 27.4954 39.5072C26.5462 39.5114 25.722 39.4957 25.6638 39.4722C25.5245 39.4161 25.4449 39.259 25.3835 38.9187C25.3558 38.7654 25.2923 38.5194 25.2424 38.372C25.1924 38.2247 25.0958 37.9032 25.0275 37.6577C24.9593 37.4121 24.852 37.0371 24.7891 36.8242C24.7261 36.6114 24.6613 36.3703 24.645 36.2885C24.6287 36.2066 24.5633 35.9789 24.4998 35.7825C24.4362 35.586 24.3532 35.3047 24.3155 35.1574C24.1828 34.6402 23.6306 32.7351 23.4786 32.2702C23.4144 32.0737 23.3361 31.8058 23.3045 31.6749C23.2729 31.5439 23.1769 31.209 23.0911 30.9307C23.0053 30.6524 22.8986 30.2774 22.8541 30.0973C22.8095 29.9172 22.7334 29.6493 22.6847 29.502C22.4811 28.8851 22.355 28.4459 22.3173 28.2221C22.2952 28.0911 22.2401 27.917 22.1947 27.8351C22.1493 27.7533 22.0869 27.5524 22.0561 27.3887C22.0252 27.225 21.9582 26.9705 21.9073 26.8231C21.8563 26.6758 21.7532 26.3141 21.678 26.0195C21.5892 25.6709 21.5128 25.4837 21.4596 25.4837C21.379 25.4837 21.2341 25.8942 21.0709 26.585C20.9815 26.9639 20.8258 27.4762 20.7091 27.7756C20.6645 27.8902 20.6105 28.1045 20.5892 28.2519C20.5678 28.3992 20.4995 28.637 20.4373 28.7803C20.3751 28.9237 20.3242 29.0811 20.3242 29.1303C20.3242 29.1795 20.2597 29.4238 20.1809 29.6734C20.1021 29.9229 19.979 30.328 19.9072 30.5735C19.8356 30.8191 19.7277 31.1807 19.6677 31.3772C19.6076 31.5737 19.5278 31.8549 19.4904 32.0023C19.3823 32.4276 19.2095 33.0282 19.1391 33.2226C19.1036 33.3209 19.0325 33.562 18.9812 33.7584C18.9299 33.9549 18.8373 34.2897 18.7755 34.5025C18.7137 34.7154 18.5972 35.1172 18.5167 35.3955C18.4362 35.6738 18.3141 36.089 18.2455 36.3182C18.1769 36.5474 18.0773 36.9225 18.0242 37.1516C17.9711 37.3808 17.9069 37.5952 17.8815 37.6279C17.8561 37.6606 17.7909 37.8615 17.7365 38.0744C17.5457 38.8221 17.3949 39.2681 17.2883 39.3998C17.1882 39.5234 17.1282 39.5336 16.4463 39.543C16.0424 39.5485 15.2336 39.5375 14.6489 39.5185C13.423 39.4785 13.4131 39.4741 13.2988 38.9235C13.2618 38.7452 13.181 38.4878 13.1191 38.3517C13.0573 38.2155 13.0062 38.0315 13.0055 37.9427C13.0047 37.8539 12.9531 37.6396 12.8906 37.4664C12.8283 37.2933 12.759 37.0454 12.7368 36.9156C12.7146 36.7858 12.6608 36.6107 12.6173 36.5266C12.5738 36.4425 12.5205 36.2674 12.4988 36.1376C12.4592 35.9013 12.4107 35.7278 12.1657 34.949C12.0936 34.7198 12.0006 34.385 11.9589 34.2049C11.9173 34.0248 11.8251 33.69 11.7541 33.4608C11.683 33.2316 11.586 32.8833 11.5383 32.6869C11.4906 32.4904 11.4228 32.2493 11.3876 32.1511C11.3524 32.0529 11.2858 31.8022 11.2397 31.5942C11.1936 31.3861 11.1172 31.1412 11.07 31.0498C11.0227 30.9584 10.968 30.767 10.9483 30.6244C10.9286 30.4819 10.8751 30.2714 10.8294 30.1568C10.7837 30.0422 10.7208 29.8145 10.6897 29.6508C10.6585 29.4871 10.592 29.2326 10.5418 29.0853C10.4916 28.9379 10.3933 28.6165 10.3233 28.3709C10.2533 28.1253 10.1454 27.7503 10.0836 27.5375C9.85724 26.7584 9.7347 26.313 9.69858 26.1385C9.67822 26.0403 9.61026 25.8344 9.54747 25.681C9.48475 25.5276 9.4322 25.3401 9.43077 25.2643C9.42934 25.1885 9.38703 25.0194 9.3368 24.8884C9.28651 24.7574 9.21938 24.5163 9.18754 24.3526C9.1557 24.1889 9.08054 23.921 9.02055 23.7573C8.91962 23.4818 8.84636 23.2171 8.6333 22.3583C8.55308 22.0348 8.53023 21.9598 8.33425 21.3761C8.27926 21.2124 8.19636 20.9101 8.14994 20.7043C8.10352 20.4987 8.02437 20.2506 7.97402 20.1532C7.90517 20.02 7.8982 19.9466 7.94587 19.8575C8.00681 19.7436 8.07263 19.739 9.63258 19.739C11.1581 19.739 11.2633 19.746 11.38 19.8547ZM45.7063 19.9082C46.4122 20.1076 47.3466 20.5787 47.8458 20.9868C49.1816 22.0786 49.8706 23.412 49.947 25.0533C49.9832 25.8321 49.8362 26.5649 49.4809 27.3766C49.2034 28.0105 49.1095 28.1433 48.5182 28.7389C48.2645 28.9944 48.057 29.2278 48.057 29.2576C48.057 29.2873 48.144 29.3636 48.2504 29.427C48.6463 29.6633 49.2965 30.2293 49.5954 30.5978C49.9806 31.0726 50.4081 31.9238 50.5301 32.4586C50.6579 33.0193 50.7436 33.9881 50.701 34.3913C50.6588 34.7905 50.4397 35.6602 50.2729 36.0905C50.0099 36.7689 49.0357 37.95 48.3546 38.4161C47.9514 38.6919 46.9537 39.1716 46.4502 39.3315L46.0038 39.4733L41.2238 39.492C37.5998 39.5062 36.4232 39.4936 36.3586 39.4401C36.2855 39.3794 36.2735 38.0017 36.2735 29.6257C36.2735 21.9101 36.289 19.8663 36.3479 19.8073C36.4066 19.7487 37.3574 19.7372 40.8262 19.7533C45.1879 19.7735 45.2348 19.775 45.7063 19.9082ZM39.6777 22.906C39.5751 23.0086 39.5751 27.7801 39.6777 27.8828C39.7907 27.9958 44.0731 27.982 44.6758 27.8666C45.4981 27.7092 46.0785 27.215 46.4384 26.3656C46.6307 25.9118 46.6267 24.9118 46.4307 24.4305C46.0835 23.5781 45.4733 23.0721 44.6053 22.9168C44.0009 22.8086 39.7842 22.7994 39.6777 22.906ZM39.7104 30.9919C39.6137 31.0511 39.6062 31.2442 39.6062 33.67C39.6062 36.2512 39.6078 36.2851 39.7292 36.3501C39.8154 36.3963 40.6729 36.4102 42.6007 36.3969L45.3492 36.3778L45.8166 36.1545C46.3886 35.8813 46.9166 35.3739 47.0805 34.9399C47.1405 34.7812 47.2239 34.5844 47.2658 34.5025C47.3148 34.4069 47.3423 34.1077 47.3425 33.666C47.3429 32.988 47.3396 32.9714 47.1108 32.4982C46.7733 31.8002 46.3351 31.3922 45.6363 31.1255L45.2302 30.9705L42.5224 30.9493C40.6647 30.9347 39.7819 30.9481 39.7104 30.9919Z" fill="#009BE3"/>
</svg>
